solid CATIA STL
  facet normal -1.000000e+000  0.000000e+000  0.000000e+000
    outer loop
      vertex  2.760000e+001 -1.700000e+001  1.000000e+001
      vertex  2.760000e+001 -1.700000e+001  0.000000e+000
      vertex  2.760000e+001 -9.800000e+001  0.000000e+000
    endloop
  endfacet
  facet normal -1.000000e+000  0.000000e+000  0.000000e+000
    outer loop
      vertex  2.760000e+001 -1.700000e+001  1.000000e+001
      vertex  2.760000e+001 -9.800000e+001  0.000000e+000
      vertex  2.760000e+001 -9.800000e+001  2.000000e+000
    endloop
  endfacet
  facet normal -9.999999e-001  0.000000e+000  0.000000e+000
    outer loop
      vertex  2.760000e+001 -1.700000e+001  1.000000e+001
      vertex  2.760000e+001 -9.800000e+001  2.000000e+000
      vertex  2.760000e+001 -9.800000e+001  8.000000e+000
    endloop
  endfacet
  facet normal -1.000000e+000  0.000000e+000  0.000000e+000
    outer loop
      vertex  2.760000e+001 -1.700000e+001  1.000000e+001
      vertex  2.760000e+001 -9.800000e+001  8.000000e+000
      vertex  2.760000e+001 -9.800000e+001  1.000000e+001
    endloop
  endfacet
  facet normal -1.000000e+000  0.000000e+000  0.000000e+000
    outer loop
      vertex  2.760000e+001 -1.000000e+002  2.000000e+000
      vertex  2.760000e+001 -1.000000e+002  8.000000e+000
      vertex  2.760000e+001 -9.800000e+001  2.000000e+000
    endloop
  endfacet
  facet normal -1.000000e+000  0.000000e+000  0.000000e+000
    outer loop
      vertex  2.760000e+001 -9.800000e+001  2.000000e+000
      vertex  2.760000e+001 -1.000000e+002  8.000000e+000
      vertex  2.760000e+001 -9.800000e+001  8.000000e+000
    endloop
  endfacet
  facet normal  1.000000e+000  0.000000e+000  0.000000e+000
    outer loop
      vertex  2.240000e+001 -1.700000e+001  0.000000e+000
      vertex  2.240000e+001 -1.700000e+001  1.000000e+001
      vertex  2.240000e+001 -9.800000e+001  1.000000e+001
    endloop
  endfacet
  facet normal  1.000000e+000  0.000000e+000  0.000000e+000
    outer loop
      vertex  2.240000e+001 -1.700000e+001  0.000000e+000
      vertex  2.240000e+001 -9.800000e+001  1.000000e+001
      vertex  2.240000e+001 -9.800000e+001  8.000000e+000
    endloop
  endfacet
  facet normal  9.999999e-001  0.000000e+000  0.000000e+000
    outer loop
      vertex  2.240000e+001 -1.700000e+001  0.000000e+000
      vertex  2.240000e+001 -9.800000e+001  8.000000e+000
      vertex  2.240000e+001 -9.800000e+001  2.000000e+000
    endloop
  endfacet
  facet normal  1.000000e+000  0.000000e+000  0.000000e+000
    outer loop
      vertex  2.240000e+001 -1.700000e+001  0.000000e+000
      vertex  2.240000e+001 -9.800000e+001  2.000000e+000
      vertex  2.240000e+001 -9.800000e+001  0.000000e+000
    endloop
  endfacet
  facet normal  1.000000e+000  0.000000e+000  0.000000e+000
    outer loop
      vertex  2.240000e+001 -9.800000e+001  2.000000e+000
      vertex  2.240000e+001 -9.800000e+001  8.000000e+000
      vertex  2.240000e+001 -1.000000e+002  2.000000e+000
    endloop
  endfacet
  facet normal  1.000000e+000  0.000000e+000  0.000000e+000
    outer loop
      vertex  2.240000e+001 -1.000000e+002  2.000000e+000
      vertex  2.240000e+001 -9.800000e+001  8.000000e+000
      vertex  2.240000e+001 -1.000000e+002  8.000000e+000
    endloop
  endfacet
  facet normal  0.000000e+000  1.000000e+000  -0.000000e+000
    outer loop
      vertex  2.760000e+001 -9.800000e+001  2.000000e+000
      vertex  2.760000e+001 -9.800000e+001  0.000000e+000
      vertex  2.240000e+001 -9.800000e+001  2.000000e+000
    endloop
  endfacet
  facet normal  0.000000e+000  1.000000e+000  0.000000e+000
    outer loop
      vertex  2.240000e+001 -9.800000e+001  2.000000e+000
      vertex  2.760000e+001 -9.800000e+001  0.000000e+000
      vertex  2.240000e+001 -9.800000e+001  0.000000e+000
    endloop
  endfacet
  facet normal  0.000000e+000  1.000000e+000  -0.000000e+000
    outer loop
      vertex  2.760000e+001 -9.800000e+001  1.000000e+001
      vertex  2.760000e+001 -9.800000e+001  8.000000e+000
      vertex  2.240000e+001 -9.800000e+001  1.000000e+001
    endloop
  endfacet
  facet normal  0.000000e+000  1.000000e+000  0.000000e+000
    outer loop
      vertex  2.240000e+001 -9.800000e+001  1.000000e+001
      vertex  2.760000e+001 -9.800000e+001  8.000000e+000
      vertex  2.240000e+001 -9.800000e+001  8.000000e+000
    endloop
  endfacet
  facet normal  0.000000e+000 -9.999999e-001  0.000000e+000
    outer loop
      vertex  3.000000e+001 -1.000000e+002  1.000000e+001
      vertex  2.760000e+001 -1.000000e+002  8.000000e+000
      vertex  3.000000e+001 -1.000000e+002 -3.839153e-015
    endloop
  endfacet
  facet normal  0.000000e+000 -1.000000e+000  0.000000e+000
    outer loop
      vertex  3.000000e+001 -1.000000e+002 -3.839153e-015
      vertex  2.760000e+001 -1.000000e+002  8.000000e+000
      vertex  2.760000e+001 -1.000000e+002  2.000000e+000
    endloop
  endfacet
  facet normal  0.000000e+000 -1.000000e+000  -0.000000e+000
    outer loop
      vertex  3.000000e+001 -1.000000e+002 -3.839153e-015
      vertex  2.760000e+001 -1.000000e+002  2.000000e+000
      vertex  2.000000e+001 -1.000000e+002 -3.552714e-015
    endloop
  endfacet
  facet normal  0.000000e+000 -1.000000e+000  0.000000e+000
    outer loop
      vertex  2.000000e+001 -1.000000e+002 -3.552714e-015
      vertex  2.760000e+001 -1.000000e+002  2.000000e+000
      vertex  2.240000e+001 -1.000000e+002  2.000000e+000
    endloop
  endfacet
  facet normal  -0.000000e+000 -9.999999e-001  0.000000e+000
    outer loop
      vertex  2.000000e+001 -1.000000e+002 -3.552714e-015
      vertex  2.240000e+001 -1.000000e+002  2.000000e+000
      vertex  2.000000e+001 -1.000000e+002  1.000000e+001
    endloop
  endfacet
  facet normal  0.000000e+000 -1.000000e+000  0.000000e+000
    outer loop
      vertex  2.000000e+001 -1.000000e+002  1.000000e+001
      vertex  2.240000e+001 -1.000000e+002  2.000000e+000
      vertex  2.240000e+001 -1.000000e+002  8.000000e+000
    endloop
  endfacet
  facet normal  0.000000e+000 -1.000000e+000  0.000000e+000
    outer loop
      vertex  2.000000e+001 -1.000000e+002  1.000000e+001
      vertex  2.240000e+001 -1.000000e+002  8.000000e+000
      vertex  3.000000e+001 -1.000000e+002  1.000000e+001
    endloop
  endfacet
  facet normal  0.000000e+000 -1.000000e+000  0.000000e+000
    outer loop
      vertex  3.000000e+001 -1.000000e+002  1.000000e+001
      vertex  2.240000e+001 -1.000000e+002  8.000000e+000
      vertex  2.760000e+001 -1.000000e+002  8.000000e+000
    endloop
  endfacet
  facet normal  0.000000e+000  0.000000e+000  1.000000e+000
    outer loop
      vertex  2.760000e+001 -1.000000e+002  2.000000e+000
      vertex  2.760000e+001 -9.800000e+001  2.000000e+000
      vertex  2.240000e+001 -1.000000e+002  2.000000e+000
    endloop
  endfacet
  facet normal  0.000000e+000  0.000000e+000  1.000000e+000
    outer loop
      vertex  2.240000e+001 -1.000000e+002  2.000000e+000
      vertex  2.760000e+001 -9.800000e+001  2.000000e+000
      vertex  2.240000e+001 -9.800000e+001  2.000000e+000
    endloop
  endfacet
  facet normal  0.000000e+000  0.000000e+000 -1.000000e+000
    outer loop
      vertex  2.240000e+001 -1.000000e+002  8.000000e+000
      vertex  2.240000e+001 -9.800000e+001  8.000000e+000
      vertex  2.760000e+001 -1.000000e+002  8.000000e+000
    endloop
  endfacet
  facet normal  0.000000e+000  0.000000e+000 -1.000000e+000
    outer loop
      vertex  2.760000e+001 -1.000000e+002  8.000000e+000
      vertex  2.240000e+001 -9.800000e+001  8.000000e+000
      vertex  2.760000e+001 -9.800000e+001  8.000000e+000
    endloop
  endfacet
  facet normal  0.000000e+000  0.000000e+000  1.000000e+000
    outer loop
      vertex -5.589727e+000  2.436709e+001  1.000000e+001
      vertex  4.320220e+000  2.462388e+001  1.000000e+001
      vertex -6.476100e-001  2.499161e+001  1.000000e+001
    endloop
  endfacet
  facet normal  0.000000e+000  0.000000e+000  1.000000e+000
    outer loop
      vertex  2.500000e+001 -1.500000e+001  1.000000e+001
      vertex  2.500000e+001  0.000000e+000  1.000000e+001
      vertex  2.000000e+001 -5.000000e+000  1.000000e+001
    endloop
  endfacet
  facet normal  0.000000e+000  0.000000e+000  1.000000e+000
    outer loop
      vertex  2.500000e+001 -1.500000e+001  1.000000e+001
      vertex  2.000000e+001 -5.000000e+000  1.000000e+001
      vertex  2.240000e+001 -1.700000e+001  1.000000e+001
    endloop
  endfacet
  facet normal  0.000000e+000  0.000000e+000  1.000000e+000
    outer loop
      vertex  2.500000e+001 -1.500000e+001  1.000000e+001
      vertex  2.240000e+001 -1.700000e+001  1.000000e+001
      vertex  2.760000e+001 -1.700000e+001  1.000000e+001
    endloop
  endfacet
  facet normal  0.000000e+000  -0.000000e+000  1.000000e+000
    outer loop
      vertex  2.500000e+001 -1.500000e+001  1.000000e+001
      vertex  2.760000e+001 -1.700000e+001  1.000000e+001
      vertex  3.000000e+001 -1.500000e+001  1.000000e+001
    endloop
  endfacet
  facet normal  -0.000000e+000  0.000000e+000  1.000000e+000
    outer loop
      vertex  3.000000e+001 -1.500000e+001  1.000000e+001
      vertex  2.760000e+001 -1.700000e+001  1.000000e+001
      vertex  3.000000e+001 -1.000000e+002  1.000000e+001
    endloop
  endfacet
  facet normal  0.000000e+000  0.000000e+000  1.000000e+000
    outer loop
      vertex  3.000000e+001 -1.000000e+002  1.000000e+001
      vertex  2.760000e+001 -1.700000e+001  1.000000e+001
      vertex  2.760000e+001 -9.800000e+001  1.000000e+001
    endloop
  endfacet
  facet normal  0.000000e+000  0.000000e+000  1.000000e+000
    outer loop
      vertex  3.000000e+001 -1.000000e+002  1.000000e+001
      vertex  2.760000e+001 -9.800000e+001  1.000000e+001
      vertex  2.000000e+001 -1.000000e+002  1.000000e+001
    endloop
  endfacet
  facet normal  0.000000e+000  0.000000e+000  1.000000e+000
    outer loop
      vertex  2.000000e+001 -1.000000e+002  1.000000e+001
      vertex  2.760000e+001 -9.800000e+001  1.000000e+001
      vertex  2.240000e+001 -9.800000e+001  1.000000e+001
    endloop
  endfacet
  facet normal  0.000000e+000  0.000000e+000  1.000000e+000
    outer loop
      vertex  2.000000e+001 -1.000000e+002  1.000000e+001
      vertex  2.240000e+001 -9.800000e+001  1.000000e+001
      vertex  2.000000e+001 -5.000000e+000  1.000000e+001
    endloop
  endfacet
  facet normal  0.000000e+000  0.000000e+000  1.000000e+000
    outer loop
      vertex  2.000000e+001 -5.000000e+000  1.000000e+001
      vertex  2.240000e+001 -9.800000e+001  1.000000e+001
      vertex  2.240000e+001 -1.700000e+001  1.000000e+001
    endloop
  endfacet
  facet normal  -0.000000e+000  0.000000e+000  9.999999e-001
    outer loop
      vertex  4.320220e+000  2.462388e+001  1.000000e+001
      vertex -5.589727e+000  2.436709e+001  1.000000e+001
      vertex  9.116523e+000  2.327851e+001  1.000000e+001
    endloop
  endfacet
  facet normal  0.000000e+000  0.000000e+000  1.000000e+000
    outer loop
      vertex  9.116523e+000  2.327851e+001  1.000000e+001
      vertex -5.589727e+000  2.436709e+001  1.000000e+001
      vertex -4.960783e+000  1.937500e+001  1.000000e+001
    endloop
  endfacet
  facet normal  0.000000e+000  0.000000e+000  1.000000e+000
    outer loop
      vertex  9.116523e+000  2.327851e+001  1.000000e+001
      vertex -4.960783e+000  1.937500e+001  1.000000e+001
      vertex  1.355087e+001  2.100890e+001  1.000000e+001
    endloop
  endfacet
  facet normal  0.000000e+000  0.000000e+000  1.000000e+000
    outer loop
      vertex  1.355087e+001  2.100890e+001  1.000000e+001
      vertex -4.960783e+000  1.937500e+001  1.000000e+001
      vertex  4.960783e+000  1.937500e+001  1.000000e+001
    endloop
  endfacet
  facet normal  -0.000000e+000  0.000000e+000  1.000000e+000
    outer loop
      vertex  1.355087e+001  2.100890e+001  1.000000e+001
      vertex  4.960783e+000  1.937500e+001  1.000000e+001
      vertex  1.744720e+001  1.790517e+001  1.000000e+001
    endloop
  endfacet
  facet normal  0.000000e+000  0.000000e+000  1.000000e+000
    outer loop
      vertex  1.744720e+001  1.790517e+001  1.000000e+001
      vertex  4.960783e+000  1.937500e+001  1.000000e+001
      vertex  8.960459e+000  1.788044e+001  1.000000e+001
    endloop
  endfacet
  facet normal  -0.000000e+000  0.000000e+000  1.000000e+000
    outer loop
      vertex  1.744720e+001  1.790517e+001  1.000000e+001
      vertex  8.960459e+000  1.788044e+001  1.000000e+001
      vertex  2.065082e+001  1.409055e+001  1.000000e+001
    endloop
  endfacet
  facet normal  0.000000e+000  0.000000e+000  9.999999e-001
    outer loop
      vertex  2.065082e+001  1.409055e+001  1.000000e+001
      vertex  8.960459e+000  1.788044e+001  1.000000e+001
      vertex  1.255173e+001  1.557093e+001  1.000000e+001
    endloop
  endfacet
  facet normal  0.000000e+000  0.000000e+000  9.999999e-001
    outer loop
      vertex  2.065082e+001  1.409055e+001  1.000000e+001
      vertex  1.255173e+001  1.557093e+001  1.000000e+001
      vertex  2.303454e+001  9.716479e+000  1.000000e+001
    endloop
  endfacet
  facet normal  0.000000e+000  0.000000e+000  1.000000e+000
    outer loop
      vertex  2.303454e+001  9.716479e+000  1.000000e+001
      vertex  1.255173e+001  1.557093e+001  1.000000e+001
      vertex  1.557093e+001  1.255173e+001  1.000000e+001
    endloop
  endfacet
  facet normal  0.000000e+000  0.000000e+000  1.000000e+000
    outer loop
      vertex  2.303454e+001  9.716479e+000  1.000000e+001
      vertex  1.557093e+001  1.255173e+001  1.000000e+001
      vertex  1.788044e+001  8.960459e+000  1.000000e+001
    endloop
  endfacet
  facet normal  -0.000000e+000  0.000000e+000  1.000000e+000
    outer loop
      vertex  4.960783e+000  1.937500e+001  1.000000e+001
      vertex -4.960783e+000  1.937500e+001  1.000000e+001
      vertex  4.292859e+000  1.743653e+001  1.000000e+001
    endloop
  endfacet
  facet normal  0.000000e+000  0.000000e+000  1.000000e+000
    outer loop
      vertex  4.292859e+000  1.743653e+001  1.000000e+001
      vertex -4.960783e+000  1.937500e+001  1.000000e+001
      vertex -4.292859e+000  1.743653e+001  1.000000e+001
    endloop
  endfacet
  facet normal  -0.000000e+000  0.000000e+000  1.000000e+000
    outer loop
      vertex  4.292859e+000  1.743653e+001  1.000000e+001
      vertex -4.292859e+000  1.743653e+001  1.000000e+001
      vertex  2.903086e+000  1.592912e+001  1.000000e+001
    endloop
  endfacet
  facet normal  0.000000e+000  0.000000e+000  1.000000e+000
    outer loop
      vertex  2.903086e+000  1.592912e+001  1.000000e+001
      vertex -4.292859e+000  1.743653e+001  1.000000e+001
      vertex -2.903086e+000  1.592912e+001  1.000000e+001
    endloop
  endfacet
  facet normal  -0.000000e+000  0.000000e+000  1.000000e+000
    outer loop
      vertex  2.903086e+000  1.592912e+001  1.000000e+001
      vertex -2.903086e+000  1.592912e+001  1.000000e+001
      vertex  1.025156e+000  1.510622e+001  1.000000e+001
    endloop
  endfacet
  facet normal  0.000000e+000  0.000000e+000  1.000000e+000
    outer loop
      vertex  1.025156e+000  1.510622e+001  1.000000e+001
      vertex -2.903086e+000  1.592912e+001  1.000000e+001
      vertex -1.025156e+000  1.510622e+001  1.000000e+001
    endloop
  endfacet
  facet normal  -0.000000e+000  0.000000e+000  1.000000e+000
    outer loop
      vertex  2.303454e+001  9.716479e+000  1.000000e+001
      vertex  1.788044e+001  8.960459e+000  1.000000e+001
      vertex  2.450371e+001  4.956637e+000  1.000000e+001
    endloop
  endfacet
  facet normal  0.000000e+000  0.000000e+000  1.000000e+000
    outer loop
      vertex  2.450371e+001  4.956637e+000  1.000000e+001
      vertex  1.788044e+001  8.960459e+000  1.000000e+001
      vertex  1.937500e+001  4.960783e+000  1.000000e+001
    endloop
  endfacet
  facet normal  0.000000e+000  0.000000e+000  9.999999e-001
    outer loop
      vertex  2.450371e+001  4.956637e+000  1.000000e+001
      vertex  1.937500e+001  4.960783e+000  1.000000e+001
      vertex  2.500000e+001  0.000000e+000  1.000000e+001
    endloop
  endfacet
  facet normal  0.000000e+000  0.000000e+000  1.000000e+000
    outer loop
      vertex  2.500000e+001  0.000000e+000  1.000000e+001
      vertex  1.937500e+001  4.960783e+000  1.000000e+001
      vertex  1.736009e+001  4.246277e+000  1.000000e+001
    endloop
  endfacet
  facet normal  0.000000e+000  0.000000e+000  9.999999e-001
    outer loop
      vertex  2.500000e+001  0.000000e+000  1.000000e+001
      vertex  1.736009e+001  4.246277e+000  1.000000e+001
      vertex  1.505824e+001  7.609493e-001  1.000000e+001
    endloop
  endfacet
  facet normal  0.000000e+000  0.000000e+000  1.000000e+000
    outer loop
      vertex  1.505824e+001  7.609493e-001  1.000000e+001
      vertex  1.736009e+001  4.246277e+000  1.000000e+001
      vertex  1.582780e+001  2.755486e+000  1.000000e+001
    endloop
  endfacet
  facet normal  0.000000e+000  0.000000e+000  1.000000e+000
    outer loop
      vertex  2.500000e+001  0.000000e+000  1.000000e+001
      vertex  1.505824e+001  7.609493e-001  1.000000e+001
      vertex  2.000000e+001 -5.000000e+000  1.000000e+001
    endloop
  endfacet
  facet normal  0.000000e+000  0.000000e+000  1.000000e+000
    outer loop
      vertex  2.000000e+001 -5.000000e+000  1.000000e+001
      vertex  1.505824e+001  7.609493e-001  1.000000e+001
      vertex  1.519212e+001 -1.372701e+000  1.000000e+001
    endloop
  endfacet
  facet normal  0.000000e+000  0.000000e+000  1.000000e+000
    outer loop
      vertex  2.000000e+001 -5.000000e+000  1.000000e+001
      vertex  1.519212e+001 -1.372701e+000  1.000000e+001
      vertex  1.791158e+001 -4.542962e+000  1.000000e+001
    endloop
  endfacet
  facet normal  0.000000e+000  0.000000e+000  1.000000e+000
    outer loop
      vertex  1.791158e+001 -4.542962e+000  1.000000e+001
      vertex  1.519212e+001 -1.372701e+000  1.000000e+001
      vertex  1.620495e+001 -3.255400e+000  1.000000e+001
    endloop
  endfacet
  facet normal  -0.000000e+000  0.000000e+000 -1.000000e+000
    outer loop
      vertex -6.476100e-001  2.499161e+001  0.000000e+000
      vertex  4.320220e+000  2.462388e+001  0.000000e+000
      vertex -5.589727e+000  2.436709e+001  0.000000e+000
    endloop
  endfacet
  facet normal  -0.000000e+000 -3.552714e-015 -1.000000e+000
    outer loop
      vertex  2.500000e+001 -1.500000e+001 -7.105427e-015
      vertex  3.000000e+001 -1.500000e+001 -7.105427e-015
      vertex  2.760000e+001 -1.700000e+001  0.000000e+000
    endloop
  endfacet
  facet normal  -0.000000e+000 -3.552714e-015 -1.000000e+000
    outer loop
      vertex  2.500000e+001 -1.500000e+001 -7.105427e-015
      vertex  2.760000e+001 -1.700000e+001  0.000000e+000
      vertex  2.240000e+001 -1.700000e+001  0.000000e+000
    endloop
  endfacet
  facet normal -2.368475e-015 -4.736950e-016 -1.000000e+000
    outer loop
      vertex  2.500000e+001 -1.500000e+001 -7.105427e-015
      vertex  2.240000e+001 -1.700000e+001  0.000000e+000
      vertex  2.000000e+001 -5.000000e+000  0.000000e+000
    endloop
  endfacet
  facet normal -4.736952e-016  4.736952e-016 -1.000000e+000
    outer loop
      vertex  2.500000e+001 -1.500000e+001 -7.105427e-015
      vertex  2.000000e+001 -5.000000e+000  0.000000e+000
      vertex  2.500000e+001  0.000000e+000  0.000000e+000
    endloop
  endfacet
  facet normal -2.928573e-015 -3.842676e-017 -1.000000e+000
    outer loop
      vertex  3.000000e+001 -1.000000e+002 -3.839153e-015
      vertex  2.760000e+001 -1.700000e+001  0.000000e+000
      vertex  3.000000e+001 -1.500000e+001 -7.105427e-015
    endloop
  endfacet
  facet normal -1.599647e-015  0.000000e+000 -1.000000e+000
    outer loop
      vertex  2.760000e+001 -1.700000e+001  0.000000e+000
      vertex  3.000000e+001 -1.000000e+002 -3.839153e-015
      vertex  2.760000e+001 -9.800000e+001  0.000000e+000
    endloop
  endfacet
  facet normal -2.864390e-017  1.885204e-015 -1.000000e+000
    outer loop
      vertex  2.760000e+001 -9.800000e+001  0.000000e+000
      vertex  3.000000e+001 -1.000000e+002 -3.839153e-015
      vertex  2.000000e+001 -1.000000e+002 -3.552714e-015
    endloop
  endfacet
  facet normal  0.000000e+000  1.776357e-015 -1.000000e+000
    outer loop
      vertex  2.760000e+001 -9.800000e+001  0.000000e+000
      vertex  2.000000e+001 -1.000000e+002 -3.552714e-015
      vertex  2.240000e+001 -9.800000e+001  0.000000e+000
    endloop
  endfacet
  facet normal  1.449133e-015  3.739698e-017 -1.000000e+000
    outer loop
      vertex  2.240000e+001 -9.800000e+001  0.000000e+000
      vertex  2.000000e+001 -1.000000e+002 -3.552714e-015
      vertex  2.000000e+001 -5.000000e+000  0.000000e+000
    endloop
  endfacet
  facet normal  0.000000e+000  0.000000e+000 -1.000000e+000
    outer loop
      vertex  2.240000e+001 -9.800000e+001  0.000000e+000
      vertex  2.000000e+001 -5.000000e+000  0.000000e+000
      vertex  2.240000e+001 -1.700000e+001  0.000000e+000
    endloop
  endfacet
  facet normal  0.000000e+000  0.000000e+000 -1.000000e+000
    outer loop
      vertex  1.788044e+001  8.960459e+000  0.000000e+000
      vertex  1.557093e+001  1.255173e+001  0.000000e+000
      vertex  2.303454e+001  9.716479e+000  0.000000e+000
    endloop
  endfacet
  facet normal  0.000000e+000  0.000000e+000 -1.000000e+000
    outer loop
      vertex  2.303454e+001  9.716479e+000  0.000000e+000
      vertex  1.557093e+001  1.255173e+001  0.000000e+000
      vertex  1.255173e+001  1.557093e+001  0.000000e+000
    endloop
  endfacet
  facet normal  0.000000e+000  0.000000e+000 -9.999999e-001
    outer loop
      vertex  2.303454e+001  9.716479e+000  0.000000e+000
      vertex  1.255173e+001  1.557093e+001  0.000000e+000
      vertex  2.065082e+001  1.409055e+001  0.000000e+000
    endloop
  endfacet
  facet normal  0.000000e+000  0.000000e+000 -9.999999e-001
    outer loop
      vertex  2.065082e+001  1.409055e+001  0.000000e+000
      vertex  1.255173e+001  1.557093e+001  0.000000e+000
      vertex  8.960459e+000  1.788044e+001  0.000000e+000
    endloop
  endfacet
  facet normal  0.000000e+000  0.000000e+000 -1.000000e+000
    outer loop
      vertex  2.065082e+001  1.409055e+001  0.000000e+000
      vertex  8.960459e+000  1.788044e+001  0.000000e+000
      vertex  1.744720e+001  1.790517e+001  0.000000e+000
    endloop
  endfacet
  facet normal  -0.000000e+000  0.000000e+000 -1.000000e+000
    outer loop
      vertex  1.744720e+001  1.790517e+001  0.000000e+000
      vertex  8.960459e+000  1.788044e+001  0.000000e+000
      vertex  4.960783e+000  1.937500e+001  0.000000e+000
    endloop
  endfacet
  facet normal  0.000000e+000  0.000000e+000 -1.000000e+000
    outer loop
      vertex  1.744720e+001  1.790517e+001  0.000000e+000
      vertex  4.960783e+000  1.937500e+001  0.000000e+000
      vertex  1.355087e+001  2.100890e+001  0.000000e+000
    endloop
  endfacet
  facet normal  0.000000e+000  0.000000e+000 -1.000000e+000
    outer loop
      vertex  1.355087e+001  2.100890e+001  0.000000e+000
      vertex  4.960783e+000  1.937500e+001  0.000000e+000
      vertex -4.960783e+000  1.937500e+001  0.000000e+000
    endloop
  endfacet
  facet normal  0.000000e+000  0.000000e+000 -1.000000e+000
    outer loop
      vertex  1.355087e+001  2.100890e+001  0.000000e+000
      vertex -4.960783e+000  1.937500e+001  0.000000e+000
      vertex  9.116523e+000  2.327851e+001  0.000000e+000
    endloop
  endfacet
  facet normal  -0.000000e+000  0.000000e+000 -1.000000e+000
    outer loop
      vertex  9.116523e+000  2.327851e+001  0.000000e+000
      vertex -4.960783e+000  1.937500e+001  0.000000e+000
      vertex -5.589727e+000  2.436709e+001  0.000000e+000
    endloop
  endfacet
  facet normal  0.000000e+000  0.000000e+000 -9.999999e-001
    outer loop
      vertex  9.116523e+000  2.327851e+001  0.000000e+000
      vertex -5.589727e+000  2.436709e+001  0.000000e+000
      vertex  4.320220e+000  2.462388e+001  0.000000e+000
    endloop
  endfacet
  facet normal  0.000000e+000  0.000000e+000 -1.000000e+000
    outer loop
      vertex  4.292859e+000  1.743653e+001  0.000000e+000
      vertex -4.960783e+000  1.937500e+001  0.000000e+000
      vertex  4.960783e+000  1.937500e+001  0.000000e+000
    endloop
  endfacet
  facet normal  0.000000e+000  0.000000e+000 -1.000000e+000
    outer loop
      vertex -4.960783e+000  1.937500e+001  0.000000e+000
      vertex  4.292859e+000  1.743653e+001  0.000000e+000
      vertex -4.292859e+000  1.743653e+001  0.000000e+000
    endloop
  endfacet
  facet normal  0.000000e+000  0.000000e+000 -1.000000e+000
    outer loop
      vertex -4.292859e+000  1.743653e+001  0.000000e+000
      vertex  4.292859e+000  1.743653e+001  0.000000e+000
      vertex  2.903086e+000  1.592912e+001  0.000000e+000
    endloop
  endfacet
  facet normal  0.000000e+000  0.000000e+000 -1.000000e+000
    outer loop
      vertex -4.292859e+000  1.743653e+001  0.000000e+000
      vertex  2.903086e+000  1.592912e+001  0.000000e+000
      vertex -2.903086e+000  1.592912e+001  0.000000e+000
    endloop
  endfacet
  facet normal  0.000000e+000  0.000000e+000 -1.000000e+000
    outer loop
      vertex -2.903086e+000  1.592912e+001  0.000000e+000
      vertex  2.903086e+000  1.592912e+001  0.000000e+000
      vertex  1.025156e+000  1.510622e+001  0.000000e+000
    endloop
  endfacet
  facet normal  0.000000e+000  0.000000e+000 -1.000000e+000
    outer loop
      vertex -2.903086e+000  1.592912e+001  0.000000e+000
      vertex  1.025156e+000  1.510622e+001  0.000000e+000
      vertex -1.025156e+000  1.510622e+001  0.000000e+000
    endloop
  endfacet
  facet normal  0.000000e+000  0.000000e+000 -1.000000e+000
    outer loop
      vertex  2.450371e+001  4.956637e+000  0.000000e+000
      vertex  1.788044e+001  8.960459e+000  0.000000e+000
      vertex  2.303454e+001  9.716479e+000  0.000000e+000
    endloop
  endfacet
  facet normal  0.000000e+000  0.000000e+000 -1.000000e+000
    outer loop
      vertex  1.788044e+001  8.960459e+000  0.000000e+000
      vertex  2.450371e+001  4.956637e+000  0.000000e+000
      vertex  1.937500e+001  4.960783e+000  0.000000e+000
    endloop
  endfacet
  facet normal  0.000000e+000  0.000000e+000 -9.999999e-001
    outer loop
      vertex  1.937500e+001  4.960783e+000  0.000000e+000
      vertex  2.450371e+001  4.956637e+000  0.000000e+000
      vertex  2.500000e+001  0.000000e+000  0.000000e+000
    endloop
  endfacet
  facet normal  0.000000e+000  0.000000e+000 -1.000000e+000
    outer loop
      vertex  1.937500e+001  4.960783e+000  0.000000e+000
      vertex  2.500000e+001  0.000000e+000  0.000000e+000
      vertex  1.736009e+001  4.246277e+000  0.000000e+000
    endloop
  endfacet
  facet normal  0.000000e+000  -0.000000e+000 -9.999999e-001
    outer loop
      vertex  1.736009e+001  4.246277e+000  0.000000e+000
      vertex  2.500000e+001  0.000000e+000  0.000000e+000
      vertex  1.505824e+001  7.609493e-001  0.000000e+000
    endloop
  endfacet
  facet normal  0.000000e+000  0.000000e+000 -1.000000e+000
    outer loop
      vertex  1.736009e+001  4.246277e+000  0.000000e+000
      vertex  1.505824e+001  7.609493e-001  0.000000e+000
      vertex  1.582780e+001  2.755486e+000  0.000000e+000
    endloop
  endfacet
  facet normal  0.000000e+000  0.000000e+000 -1.000000e+000
    outer loop
      vertex  2.500000e+001  0.000000e+000  0.000000e+000
      vertex  2.000000e+001 -5.000000e+000  0.000000e+000
      vertex  1.505824e+001  7.609493e-001  0.000000e+000
    endloop
  endfacet
  facet normal  0.000000e+000  0.000000e+000 -1.000000e+000
    outer loop
      vertex  1.505824e+001  7.609493e-001  0.000000e+000
      vertex  2.000000e+001 -5.000000e+000  0.000000e+000
      vertex  1.519212e+001 -1.372701e+000  0.000000e+000
    endloop
  endfacet
  facet normal  0.000000e+000  0.000000e+000 -1.000000e+000
    outer loop
      vertex  2.000000e+001 -5.000000e+000  0.000000e+000
      vertex  1.791158e+001 -4.542962e+000  0.000000e+000
      vertex  1.519212e+001 -1.372701e+000  0.000000e+000
    endloop
  endfacet
  facet normal  0.000000e+000  0.000000e+000 -1.000000e+000
    outer loop
      vertex  1.519212e+001 -1.372701e+000  0.000000e+000
      vertex  1.791158e+001 -4.542962e+000  0.000000e+000
      vertex  1.620495e+001 -3.255400e+000  0.000000e+000
    endloop
  endfacet
  facet normal  0.000000e+000 -1.000000e+000  0.000000e+000
    outer loop
      vertex  2.240000e+001 -1.700000e+001  1.000000e+001
      vertex  2.240000e+001 -1.700000e+001  0.000000e+000
      vertex  2.760000e+001 -1.700000e+001  1.000000e+001
    endloop
  endfacet
  facet normal  0.000000e+000 -1.000000e+000  -0.000000e+000
    outer loop
      vertex  2.760000e+001 -1.700000e+001  1.000000e+001
      vertex  2.240000e+001 -1.700000e+001  0.000000e+000
      vertex  2.760000e+001 -1.700000e+001  0.000000e+000
    endloop
  endfacet
  facet normal -2.137845e-001 -9.768808e-001  -0.000000e+000
    outer loop
      vertex  2.000000e+001 -5.000000e+000  0.000000e+000
      vertex  2.000000e+001 -5.000000e+000  1.000000e+001
      vertex  1.791158e+001 -4.542962e+000  0.000000e+000
    endloop
  endfacet
  facet normal -2.137845e-001 -9.768808e-001  0.000000e+000
    outer loop
      vertex  1.791158e+001 -4.542962e+000  0.000000e+000
      vertex  2.000000e+001 -5.000000e+000  1.000000e+001
      vertex  1.791158e+001 -4.542962e+000  1.000000e+001
    endloop
  endfacet
  facet normal -6.022707e-001 -7.982919e-001  -0.000000e+000
    outer loop
      vertex  1.791158e+001 -4.542962e+000  0.000000e+000
      vertex  1.791158e+001 -4.542962e+000  1.000000e+001
      vertex  1.620495e+001 -3.255400e+000  0.000000e+000
    endloop
  endfacet
  facet normal -6.022707e-001 -7.982919e-001  0.000000e+000
    outer loop
      vertex  1.620495e+001 -3.255400e+000  0.000000e+000
      vertex  1.791158e+001 -4.542962e+000  1.000000e+001
      vertex  1.620495e+001 -3.255400e+000  1.000000e+001
    endloop
  endfacet
  facet normal -8.806523e-001 -4.737631e-001  -0.000000e+000
    outer loop
      vertex  1.620495e+001 -3.255400e+000  0.000000e+000
      vertex  1.620495e+001 -3.255400e+000  1.000000e+001
      vertex  1.519212e+001 -1.372701e+000  0.000000e+000
    endloop
  endfacet
  facet normal -8.806523e-001 -4.737631e-001  0.000000e+000
    outer loop
      vertex  1.519212e+001 -1.372701e+000  0.000000e+000
      vertex  1.620495e+001 -3.255400e+000  1.000000e+001
      vertex  1.519212e+001 -1.372701e+000  1.000000e+001
    endloop
  endfacet
  facet normal -9.980373e-001 -6.262274e-002  -0.000000e+000
    outer loop
      vertex  1.519212e+001 -1.372701e+000  0.000000e+000
      vertex  1.519212e+001 -1.372701e+000  1.000000e+001
      vertex  1.505824e+001  7.609493e-001  0.000000e+000
    endloop
  endfacet
  facet normal -9.980373e-001 -6.262274e-002  0.000000e+000
    outer loop
      vertex  1.505824e+001  7.609493e-001  0.000000e+000
      vertex  1.519212e+001 -1.372701e+000  1.000000e+001
      vertex  1.505824e+001  7.609493e-001  1.000000e+001
    endloop
  endfacet
  facet normal -9.329655e-001  3.599657e-001  0.000000e+000
    outer loop
      vertex  1.505824e+001  7.609493e-001  0.000000e+000
      vertex  1.505824e+001  7.609493e-001  1.000000e+001
      vertex  1.582780e+001  2.755486e+000  0.000000e+000
    endloop
  endfacet
  facet normal -9.329655e-001  3.599657e-001  0.000000e+000
    outer loop
      vertex  1.582780e+001  2.755486e+000  0.000000e+000
      vertex  1.505824e+001  7.609493e-001  1.000000e+001
      vertex  1.582780e+001  2.755486e+000  1.000000e+001
    endloop
  endfacet
  facet normal -6.973337e-001  7.167467e-001  0.000000e+000
    outer loop
      vertex  1.582780e+001  2.755486e+000  0.000000e+000
      vertex  1.582780e+001  2.755486e+000  1.000000e+001
      vertex  1.736009e+001  4.246277e+000  0.000000e+000
    endloop
  endfacet
  facet normal -6.973337e-001  7.167467e-001  0.000000e+000
    outer loop
      vertex  1.736009e+001  4.246277e+000  0.000000e+000
      vertex  1.582780e+001  2.755486e+000  1.000000e+001
      vertex  1.736009e+001  4.246277e+000  1.000000e+001
    endloop
  endfacet
  facet normal -3.342177e-001  9.424959e-001  0.000000e+000
    outer loop
      vertex  1.736009e+001  4.246277e+000  0.000000e+000
      vertex  1.736009e+001  4.246277e+000  1.000000e+001
      vertex  1.937500e+001  4.960783e+000  0.000000e+000
    endloop
  endfacet
  facet normal -3.342177e-001  9.424959e-001  0.000000e+000
    outer loop
      vertex  1.937500e+001  4.960783e+000  0.000000e+000
      vertex  1.736009e+001  4.246277e+000  1.000000e+001
      vertex  1.937500e+001  4.960783e+000  1.000000e+001
    endloop
  endfacet
  facet normal -9.999999e-001  0.000000e+000  0.000000e+000
    outer loop
      vertex  2.000000e+001 -5.000000e+000  1.000000e+001
      vertex  2.000000e+001 -5.000000e+000  0.000000e+000
      vertex  2.000000e+001 -1.000000e+002  1.000000e+001
    endloop
  endfacet
  facet normal -9.999999e-001  0.000000e+000  0.000000e+000
    outer loop
      vertex  2.000000e+001 -1.000000e+002  1.000000e+001
      vertex  2.000000e+001 -5.000000e+000  0.000000e+000
      vertex  2.000000e+001 -1.000000e+002 -3.552714e-015
    endloop
  endfacet
  facet normal  0.000000e+000  1.000000e+000  0.000000e+000
    outer loop
      vertex  2.500000e+001 -1.500000e+001  1.000000e+001
      vertex  3.000000e+001 -1.500000e+001  1.000000e+001
      vertex  2.500000e+001 -1.500000e+001 -7.105427e-015
    endloop
  endfacet
  facet normal  0.000000e+000  1.000000e+000  0.000000e+000
    outer loop
      vertex  2.500000e+001 -1.500000e+001 -7.105427e-015
      vertex  3.000000e+001 -1.500000e+001  1.000000e+001
      vertex  3.000000e+001 -1.500000e+001 -7.105427e-015
    endloop
  endfacet
  facet normal  1.000000e+000  -0.000000e+000  0.000000e+000
    outer loop
      vertex  2.500000e+001  0.000000e+000  1.000000e+001
      vertex  2.500000e+001 -1.500000e+001  1.000000e+001
      vertex  2.500000e+001  0.000000e+000  0.000000e+000
    endloop
  endfacet
  facet normal  1.000000e+000  0.000000e+000  0.000000e+000
    outer loop
      vertex  2.500000e+001  0.000000e+000  0.000000e+000
      vertex  2.500000e+001 -1.500000e+001  1.000000e+001
      vertex  2.500000e+001 -1.500000e+001 -7.105427e-015
    endloop
  endfacet
  facet normal  9.999999e-001  0.000000e+000  0.000000e+000
    outer loop
      vertex  3.000000e+001 -1.500000e+001 -7.105427e-015
      vertex  3.000000e+001 -1.500000e+001  1.000000e+001
      vertex  3.000000e+001 -1.000000e+002 -3.839153e-015
    endloop
  endfacet
  facet normal  9.999999e-001  0.000000e+000  0.000000e+000
    outer loop
      vertex  3.000000e+001 -1.000000e+002 -3.839153e-015
      vertex  3.000000e+001 -1.500000e+001  1.000000e+001
      vertex  3.000000e+001 -1.000000e+002  1.000000e+001
    endloop
  endfacet
  facet normal -5.408954e-001 -8.410898e-001  -0.000000e+000
    outer loop
      vertex  1.255173e+001  1.557093e+001  0.000000e+000
      vertex  8.960459e+000  1.788044e+001  1.000000e+001
      vertex  8.960459e+000  1.788044e+001  0.000000e+000
    endloop
  endfacet
  facet normal -3.500309e-001 -9.367381e-001  0.000000e+000
    outer loop
      vertex  8.960459e+000  1.788044e+001  0.000000e+000
      vertex  8.960459e+000  1.788044e+001  1.000000e+001
      vertex  4.960783e+000  1.937500e+001  1.000000e+001
    endloop
  endfacet
  facet normal -3.500309e-001 -9.367381e-001  -0.000000e+000
    outer loop
      vertex  8.960459e+000  1.788044e+001  0.000000e+000
      vertex  4.960783e+000  1.937500e+001  1.000000e+001
      vertex  4.960783e+000  1.937500e+001  0.000000e+000
    endloop
  endfacet
  facet normal -5.408954e-001 -8.410898e-001  0.000000e+000
    outer loop
      vertex  8.960459e+000  1.788044e+001  1.000000e+001
      vertex  1.255173e+001  1.557093e+001  0.000000e+000
      vertex  1.255173e+001  1.557093e+001  1.000000e+001
    endloop
  endfacet
  facet normal -7.071068e-001 -7.071068e-001  -0.000000e+000
    outer loop
      vertex  1.255173e+001  1.557093e+001  1.000000e+001
      vertex  1.255173e+001  1.557093e+001  0.000000e+000
      vertex  1.557093e+001  1.255173e+001  0.000000e+000
    endloop
  endfacet
  facet normal -7.071068e-001 -7.071068e-001  0.000000e+000
    outer loop
      vertex  1.255173e+001  1.557093e+001  1.000000e+001
      vertex  1.557093e+001  1.255173e+001  0.000000e+000
      vertex  1.557093e+001  1.255173e+001  1.000000e+001
    endloop
  endfacet
  facet normal -8.410898e-001 -5.408954e-001  -0.000000e+000
    outer loop
      vertex  1.557093e+001  1.255173e+001  1.000000e+001
      vertex  1.557093e+001  1.255173e+001  0.000000e+000
      vertex  1.788044e+001  8.960459e+000  0.000000e+000
    endloop
  endfacet
  facet normal -8.410898e-001 -5.408954e-001  0.000000e+000
    outer loop
      vertex  1.557093e+001  1.255173e+001  1.000000e+001
      vertex  1.788044e+001  8.960459e+000  0.000000e+000
      vertex  1.788044e+001  8.960459e+000  1.000000e+001
    endloop
  endfacet
  facet normal -9.367381e-001 -3.500309e-001  -0.000000e+000
    outer loop
      vertex  1.788044e+001  8.960459e+000  1.000000e+001
      vertex  1.788044e+001  8.960459e+000  0.000000e+000
      vertex  1.937500e+001  4.960783e+000  0.000000e+000
    endloop
  endfacet
  facet normal -9.367381e-001 -3.500309e-001  0.000000e+000
    outer loop
      vertex  1.788044e+001  8.960459e+000  1.000000e+001
      vertex  1.937500e+001  4.960783e+000  0.000000e+000
      vertex  1.937500e+001  4.960783e+000  1.000000e+001
    endloop
  endfacet
  facet normal  9.454500e-001 -3.257673e-001  0.000000e+000
    outer loop
      vertex  4.960783e+000  1.937500e+001  0.000000e+000
      vertex  4.960783e+000  1.937500e+001  1.000000e+001
      vertex  4.292859e+000  1.743653e+001  0.000000e+000
    endloop
  endfacet
  facet normal  9.454500e-001 -3.257673e-001  0.000000e+000
    outer loop
      vertex  4.292859e+000  1.743653e+001  0.000000e+000
      vertex  4.960783e+000  1.937500e+001  1.000000e+001
      vertex  4.292859e+000  1.743653e+001  1.000000e+001
    endloop
  endfacet
  facet normal  7.352138e-001 -6.778354e-001  0.000000e+000
    outer loop
      vertex  4.292859e+000  1.743653e+001  0.000000e+000
      vertex  4.292859e+000  1.743653e+001  1.000000e+001
      vertex  2.903086e+000  1.592912e+001  0.000000e+000
    endloop
  endfacet
  facet normal  7.352138e-001 -6.778354e-001  0.000000e+000
    outer loop
      vertex  2.903086e+000  1.592912e+001  0.000000e+000
      vertex  4.292859e+000  1.743653e+001  1.000000e+001
      vertex  2.903086e+000  1.592912e+001  1.000000e+001
    endloop
  endfacet
  facet normal  4.013504e-001 -9.159245e-001  0.000000e+000
    outer loop
      vertex  2.903086e+000  1.592912e+001  0.000000e+000
      vertex  2.903086e+000  1.592912e+001  1.000000e+001
      vertex  1.025156e+000  1.510622e+001  0.000000e+000
    endloop
  endfacet
  facet normal  4.013504e-001 -9.159245e-001  0.000000e+000
    outer loop
      vertex  1.025156e+000  1.510622e+001  0.000000e+000
      vertex  2.903086e+000  1.592912e+001  1.000000e+001
      vertex  1.025156e+000  1.510622e+001  1.000000e+001
    endloop
  endfacet
  facet normal  0.000000e+000 -1.000000e+000  -0.000000e+000
    outer loop
      vertex  1.025156e+000  1.510622e+001  0.000000e+000
      vertex  1.025156e+000  1.510622e+001  1.000000e+001
      vertex -1.025156e+000  1.510622e+001  0.000000e+000
    endloop
  endfacet
  facet normal  0.000000e+000 -1.000000e+000  0.000000e+000
    outer loop
      vertex -1.025156e+000  1.510622e+001  0.000000e+000
      vertex  1.025156e+000  1.510622e+001  1.000000e+001
      vertex -1.025156e+000  1.510622e+001  1.000000e+001
    endloop
  endfacet
  facet normal -4.013504e-001 -9.159245e-001  -0.000000e+000
    outer loop
      vertex -1.025156e+000  1.510622e+001  0.000000e+000
      vertex -1.025156e+000  1.510622e+001  1.000000e+001
      vertex -2.903086e+000  1.592912e+001  0.000000e+000
    endloop
  endfacet
  facet normal -4.013504e-001 -9.159245e-001  0.000000e+000
    outer loop
      vertex -2.903086e+000  1.592912e+001  0.000000e+000
      vertex -1.025156e+000  1.510622e+001  1.000000e+001
      vertex -2.903086e+000  1.592912e+001  1.000000e+001
    endloop
  endfacet
  facet normal -7.352138e-001 -6.778354e-001  -0.000000e+000
    outer loop
      vertex -2.903086e+000  1.592912e+001  0.000000e+000
      vertex -2.903086e+000  1.592912e+001  1.000000e+001
      vertex -4.292859e+000  1.743653e+001  0.000000e+000
    endloop
  endfacet
  facet normal -7.352138e-001 -6.778354e-001  0.000000e+000
    outer loop
      vertex -4.292859e+000  1.743653e+001  0.000000e+000
      vertex -2.903086e+000  1.592912e+001  1.000000e+001
      vertex -4.292859e+000  1.743653e+001  1.000000e+001
    endloop
  endfacet
  facet normal -9.454500e-001 -3.257673e-001  -0.000000e+000
    outer loop
      vertex -4.292859e+000  1.743653e+001  0.000000e+000
      vertex -4.292859e+000  1.743653e+001  1.000000e+001
      vertex -4.960783e+000  1.937500e+001  0.000000e+000
    endloop
  endfacet
  facet normal -9.454500e-001 -3.257673e-001  0.000000e+000
    outer loop
      vertex -4.960783e+000  1.937500e+001  0.000000e+000
      vertex -4.292859e+000  1.743653e+001  1.000000e+001
      vertex -4.960783e+000  1.937500e+001  1.000000e+001
    endloop
  endfacet
  facet normal -9.921568e-001 -1.250000e-001  0.000000e+000
    outer loop
      vertex -5.589727e+000  2.436709e+001  0.000000e+000
      vertex -4.960783e+000  1.937500e+001  0.000000e+000
      vertex -5.589727e+000  2.436709e+001  1.000000e+001
    endloop
  endfacet
  facet normal -9.921568e-001 -1.250000e-001  0.000000e+000
    outer loop
      vertex -5.589727e+000  2.436709e+001  1.000000e+001
      vertex -4.960783e+000  1.937500e+001  0.000000e+000
      vertex -4.960783e+000  1.937500e+001  1.000000e+001
    endloop
  endfacet
  facet normal -1.253709e-001  9.921100e-001  0.000000e+000
    outer loop
      vertex -5.589727e+000  2.436709e+001  0.000000e+000
      vertex -5.589727e+000  2.436709e+001  1.000000e+001
      vertex -6.476100e-001  2.499161e+001  0.000000e+000
    endloop
  endfacet
  facet normal -1.253709e-001  9.921100e-001  0.000000e+000
    outer loop
      vertex -6.476100e-001  2.499161e+001  0.000000e+000
      vertex -5.589727e+000  2.436709e+001  1.000000e+001
      vertex -6.476100e-001  2.499161e+001  1.000000e+001
    endloop
  endfacet
  facet normal  7.381975e-002  9.972716e-001  0.000000e+000
    outer loop
      vertex -6.476100e-001  2.499161e+001  0.000000e+000
      vertex -6.476100e-001  2.499161e+001  1.000000e+001
      vertex  4.320220e+000  2.462388e+001  0.000000e+000
    endloop
  endfacet
  facet normal  7.381975e-002  9.972716e-001  -0.000000e+000
    outer loop
      vertex  4.320220e+000  2.462388e+001  0.000000e+000
      vertex -6.476100e-001  2.499161e+001  1.000000e+001
      vertex  4.320220e+000  2.462388e+001  1.000000e+001
    endloop
  endfacet
  facet normal  2.700786e-001  9.628382e-001  0.000000e+000
    outer loop
      vertex  4.320220e+000  2.462388e+001  0.000000e+000
      vertex  4.320220e+000  2.462388e+001  1.000000e+001
      vertex  9.116523e+000  2.327851e+001  0.000000e+000
    endloop
  endfacet
  facet normal  2.700786e-001  9.628382e-001  -0.000000e+000
    outer loop
      vertex  9.116523e+000  2.327851e+001  0.000000e+000
      vertex  4.320220e+000  2.462388e+001  1.000000e+001
      vertex  9.116523e+000  2.327851e+001  1.000000e+001
    endloop
  endfacet
  facet normal  4.556145e-001  8.901771e-001  0.000000e+000
    outer loop
      vertex  9.116523e+000  2.327851e+001  0.000000e+000
      vertex  9.116523e+000  2.327851e+001  1.000000e+001
      vertex  1.355087e+001  2.100890e+001  0.000000e+000
    endloop
  endfacet
  facet normal  4.556145e-001  8.901771e-001  -0.000000e+000
    outer loop
      vertex  1.355087e+001  2.100890e+001  0.000000e+000
      vertex  9.116523e+000  2.327851e+001  1.000000e+001
      vertex  1.355087e+001  2.100890e+001  1.000000e+001
    endloop
  endfacet
  facet normal  6.230614e-001  7.821729e-001  0.000000e+000
    outer loop
      vertex  1.355087e+001  2.100890e+001  0.000000e+000
      vertex  1.355087e+001  2.100890e+001  1.000000e+001
      vertex  1.744720e+001  1.790517e+001  0.000000e+000
    endloop
  endfacet
  facet normal  6.230614e-001  7.821729e-001  -0.000000e+000
    outer loop
      vertex  1.744720e+001  1.790517e+001  0.000000e+000
      vertex  1.355087e+001  2.100890e+001  1.000000e+001
      vertex  1.744720e+001  1.790517e+001  1.000000e+001
    endloop
  endfacet
  facet normal  7.657705e-001  6.431139e-001  0.000000e+000
    outer loop
      vertex  1.744720e+001  1.790517e+001  0.000000e+000
      vertex  1.744720e+001  1.790517e+001  1.000000e+001
      vertex  2.065082e+001  1.409055e+001  0.000000e+000
    endloop
  endfacet
  facet normal  7.657705e-001  6.431139e-001  -0.000000e+000
    outer loop
      vertex  2.065082e+001  1.409055e+001  0.000000e+000
      vertex  1.744720e+001  1.790517e+001  1.000000e+001
      vertex  2.065082e+001  1.409055e+001  1.000000e+001
    endloop
  endfacet
  facet normal  8.780759e-001  4.785213e-001  0.000000e+000
    outer loop
      vertex  2.065082e+001  1.409055e+001  0.000000e+000
      vertex  2.065082e+001  1.409055e+001  1.000000e+001
      vertex  2.303454e+001  9.716479e+000  0.000000e+000
    endloop
  endfacet
  facet normal  8.780759e-001  4.785213e-001  -0.000000e+000
    outer loop
      vertex  2.303454e+001  9.716479e+000  0.000000e+000
      vertex  2.065082e+001  1.409055e+001  1.000000e+001
      vertex  2.303454e+001  9.716479e+000  1.000000e+001
    endloop
  endfacet
  facet normal  9.555190e-001  2.949298e-001  0.000000e+000
    outer loop
      vertex  2.303454e+001  9.716479e+000  0.000000e+000
      vertex  2.303454e+001  9.716479e+000  1.000000e+001
      vertex  2.450371e+001  4.956637e+000  0.000000e+000
    endloop
  endfacet
  facet normal  9.555190e-001  2.949298e-001  -0.000000e+000
    outer loop
      vertex  2.450371e+001  4.956637e+000  0.000000e+000
      vertex  2.303454e+001  9.716479e+000  1.000000e+001
      vertex  2.450371e+001  4.956637e+000  1.000000e+001
    endloop
  endfacet
  facet normal  9.950247e-001  9.962824e-002  0.000000e+000
    outer loop
      vertex  2.450371e+001  4.956637e+000  0.000000e+000
      vertex  2.450371e+001  4.956637e+000  1.000000e+001
      vertex  2.500000e+001  0.000000e+000  0.000000e+000
    endloop
  endfacet
  facet normal  9.950247e-001  9.962824e-002  -0.000000e+000
    outer loop
      vertex  2.500000e+001  0.000000e+000  0.000000e+000
      vertex  2.450371e+001  4.956637e+000  1.000000e+001
      vertex  2.500000e+001  0.000000e+000  1.000000e+001
    endloop
  endfacet
endsolid CATIA STL
