solid CATIA STL
  facet normal  0.000000e+000  1.000000e+000  0.000000e+000
    outer loop
      vertex -6.331848e+000  2.400000e+000  1.559031e+000
      vertex -6.060676e+000  2.400000e+000  2.077691e+000
      vertex -2.000000e+000  2.400000e+000  0.000000e+000
    endloop
  endfacet
  facet normal  0.000000e+000  1.000000e+000  0.000000e+000
    outer loop
      vertex -8.000000e+000  2.400000e+000  5.000000e+000
      vertex -6.559031e+000  2.400000e+000  3.668152e+000
      vertex -7.077691e+000  2.400000e+000  3.939324e+000
    endloop
  endfacet
  facet normal  0.000000e+000  1.000000e+000  0.000000e+000
    outer loop
      vertex -8.000000e+000  2.400000e+000  5.000000e+000
      vertex -7.077691e+000  2.400000e+000  3.939324e+000
      vertex -7.660643e+000  2.400000e+000  3.991373e+000
    endloop
  endfacet
  facet normal  0.000000e+000  1.000000e+000  0.000000e+000
    outer loop
      vertex -8.000000e+000  2.400000e+000  5.000000e+000
      vertex -7.660643e+000  2.400000e+000  3.991373e+000
      vertex -8.219138e+000  2.400000e+000  3.816374e+000
    endloop
  endfacet
  facet normal  0.000000e+000  9.999999e-001  -0.000000e+000
    outer loop
      vertex -8.000000e+000  2.400000e+000  5.000000e+000
      vertex -8.219138e+000  2.400000e+000  3.816374e+000
      vertex -8.668152e+000  2.400000e+000  3.440969e+000
    endloop
  endfacet
  facet normal  0.000000e+000  9.999999e-001  0.000000e+000
    outer loop
      vertex -8.000000e+000  2.400000e+000  5.000000e+000
      vertex -8.668152e+000  2.400000e+000  3.440969e+000
      vertex -8.618034e+000  2.400000e+000  4.902113e+000
    endloop
  endfacet
  facet normal  0.000000e+000  1.000000e+000  -0.000000e+000
    outer loop
      vertex -2.000000e+000  2.400000e+000  5.000000e+000
      vertex -2.000000e+000  2.400000e+000  0.000000e+000
      vertex -6.060676e+000  2.400000e+000  2.077691e+000
    endloop
  endfacet
  facet normal  0.000000e+000  1.000000e+000  0.000000e+000
    outer loop
      vertex -2.000000e+000  2.400000e+000  5.000000e+000
      vertex -6.060676e+000  2.400000e+000  2.077691e+000
      vertex -6.008627e+000  2.400000e+000  2.660643e+000
    endloop
  endfacet
  facet normal  0.000000e+000  1.000000e+000  -0.000000e+000
    outer loop
      vertex -2.000000e+000  2.400000e+000  5.000000e+000
      vertex -6.008627e+000  2.400000e+000  2.660643e+000
      vertex -6.183626e+000  2.400000e+000  3.219138e+000
    endloop
  endfacet
  facet normal  0.000000e+000  1.000000e+000  -0.000000e+000
    outer loop
      vertex -2.000000e+000  2.400000e+000  5.000000e+000
      vertex -6.183626e+000  2.400000e+000  3.219138e+000
      vertex -6.559031e+000  2.400000e+000  3.668152e+000
    endloop
  endfacet
  facet normal  0.000000e+000  9.999999e-001  -0.000000e+000
    outer loop
      vertex -2.000000e+000  2.400000e+000  5.000000e+000
      vertex -6.559031e+000  2.400000e+000  3.668152e+000
      vertex -8.000000e+000  2.400000e+000  5.000000e+000
    endloop
  endfacet
  facet normal  0.000000e+000  1.000000e+000  0.000000e+000
    outer loop
      vertex -8.991373e+000  2.400000e+000  2.339357e+000
      vertex -8.816374e+000  2.400000e+000  1.780862e+000
      vertex -9.175570e+000  2.400000e+000  3.819660e-001
    endloop
  endfacet
  facet normal  0.000000e+000  1.000000e+000  -0.000000e+000
    outer loop
      vertex -8.991373e+000  2.400000e+000  2.339357e+000
      vertex -9.175570e+000  2.400000e+000  3.819660e-001
      vertex -9.618034e+000  2.400000e+000  8.244295e-001
    endloop
  endfacet
  facet normal  0.000000e+000  1.000000e+000  -0.000000e+000
    outer loop
      vertex -8.991373e+000  2.400000e+000  2.339357e+000
      vertex -9.618034e+000  2.400000e+000  8.244295e-001
      vertex -9.902113e+000  2.400000e+000  1.381966e+000
    endloop
  endfacet
  facet normal  0.000000e+000  1.000000e+000  -0.000000e+000
    outer loop
      vertex -8.991373e+000  2.400000e+000  2.339357e+000
      vertex -9.902113e+000  2.400000e+000  1.381966e+000
      vertex -1.000000e+001  2.400000e+000  2.000000e+000
    endloop
  endfacet
  facet normal  -0.000000e+000  1.000000e+000  0.000000e+000
    outer loop
      vertex -8.000000e+000  2.400000e+000  0.000000e+000
      vertex -8.618034e+000  2.400000e+000  9.788696e-002
      vertex -8.440969e+000  2.400000e+000  1.331848e+000
    endloop
  endfacet
  facet normal  0.000000e+000  1.000000e+000  0.000000e+000
    outer loop
      vertex -8.000000e+000  2.400000e+000  0.000000e+000
      vertex -8.440969e+000  2.400000e+000  1.331848e+000
      vertex -7.922309e+000  2.400000e+000  1.060676e+000
    endloop
  endfacet
  facet normal  0.000000e+000  1.000000e+000  0.000000e+000
    outer loop
      vertex -8.000000e+000  2.400000e+000  0.000000e+000
      vertex -7.922309e+000  2.400000e+000  1.060676e+000
      vertex -7.339357e+000  2.400000e+000  1.008627e+000
    endloop
  endfacet
  facet normal  -0.000000e+000  1.000000e+000  0.000000e+000
    outer loop
      vertex -8.000000e+000  2.400000e+000  0.000000e+000
      vertex -7.339357e+000  2.400000e+000  1.008627e+000
      vertex -6.780862e+000  2.400000e+000  1.183626e+000
    endloop
  endfacet
  facet normal  -0.000000e+000  1.000000e+000  0.000000e+000
    outer loop
      vertex -8.000000e+000  2.400000e+000  0.000000e+000
      vertex -6.780862e+000  2.400000e+000  1.183626e+000
      vertex -6.331848e+000  2.400000e+000  1.559031e+000
    endloop
  endfacet
  facet normal  0.000000e+000  1.000000e+000  0.000000e+000
    outer loop
      vertex -8.000000e+000  2.400000e+000  0.000000e+000
      vertex -6.331848e+000  2.400000e+000  1.559031e+000
      vertex -2.000000e+000  2.400000e+000  0.000000e+000
    endloop
  endfacet
  facet normal  0.000000e+000  1.000000e+000  0.000000e+000
    outer loop
      vertex -9.618034e+000  2.400000e+000  4.175570e+000
      vertex -9.175570e+000  2.400000e+000  4.618034e+000
      vertex -9.902113e+000  2.400000e+000  3.618034e+000
    endloop
  endfacet
  facet normal  -0.000000e+000  1.000000e+000  0.000000e+000
    outer loop
      vertex -9.902113e+000  2.400000e+000  3.618034e+000
      vertex -9.175570e+000  2.400000e+000  4.618034e+000
      vertex -8.939324e+000  2.400000e+000  2.922309e+000
    endloop
  endfacet
  facet normal  0.000000e+000  1.000000e+000  0.000000e+000
    outer loop
      vertex -9.902113e+000  2.400000e+000  3.618034e+000
      vertex -8.939324e+000  2.400000e+000  2.922309e+000
      vertex -1.000000e+001  2.400000e+000  3.000000e+000
    endloop
  endfacet
  facet normal  0.000000e+000  9.999999e-001  0.000000e+000
    outer loop
      vertex -1.000000e+001  2.400000e+000  3.000000e+000
      vertex -8.939324e+000  2.400000e+000  2.922309e+000
      vertex -8.991373e+000  2.400000e+000  2.339357e+000
    endloop
  endfacet
  facet normal  0.000000e+000  1.000000e+000  0.000000e+000
    outer loop
      vertex -1.000000e+001  2.400000e+000  3.000000e+000
      vertex -8.991373e+000  2.400000e+000  2.339357e+000
      vertex -1.000000e+001  2.400000e+000  2.000000e+000
    endloop
  endfacet
  facet normal  0.000000e+000  1.000000e+000  0.000000e+000
    outer loop
      vertex -9.175570e+000  2.400000e+000  4.618034e+000
      vertex -8.618034e+000  2.400000e+000  4.902113e+000
      vertex -8.939324e+000  2.400000e+000  2.922309e+000
    endloop
  endfacet
  facet normal  0.000000e+000  1.000000e+000  0.000000e+000
    outer loop
      vertex -8.939324e+000  2.400000e+000  2.922309e+000
      vertex -8.618034e+000  2.400000e+000  4.902113e+000
      vertex -8.668152e+000  2.400000e+000  3.440969e+000
    endloop
  endfacet
  facet normal  0.000000e+000  1.000000e+000  0.000000e+000
    outer loop
      vertex -8.816374e+000  2.400000e+000  1.780862e+000
      vertex -8.440969e+000  2.400000e+000  1.331848e+000
      vertex -9.175570e+000  2.400000e+000  3.819660e-001
    endloop
  endfacet
  facet normal  -0.000000e+000  1.000000e+000  0.000000e+000
    outer loop
      vertex -9.175570e+000  2.400000e+000  3.819660e-001
      vertex -8.440969e+000  2.400000e+000  1.331848e+000
      vertex -8.618034e+000  2.400000e+000  9.788696e-002
    endloop
  endfacet
  facet normal -1.000000e+000  -0.000000e+000  0.000000e+000
    outer loop
      vertex -1.000000e+001 -2.400000e+000  3.000000e+000
      vertex -1.000000e+001  2.400000e+000  3.000000e+000
      vertex -1.000000e+001 -2.400000e+000  2.000000e+000
    endloop
  endfacet
  facet normal -1.000000e+000  0.000000e+000  0.000000e+000
    outer loop
      vertex -1.000000e+001 -2.400000e+000  2.000000e+000
      vertex -1.000000e+001  2.400000e+000  3.000000e+000
      vertex -1.000000e+001  2.400000e+000  2.000000e+000
    endloop
  endfacet
  facet normal  0.000000e+000 -1.000000e+000  -0.000000e+000
    outer loop
      vertex -2.000000e+000 -2.400000e+000 -1.110223e-015
      vertex -6.060676e+000 -2.400000e+000  2.077691e+000
      vertex -6.331848e+000 -2.400000e+000  1.559031e+000
    endloop
  endfacet
  facet normal  0.000000e+000 -9.999999e-001  -0.000000e+000
    outer loop
      vertex -8.000000e+000 -2.400000e+000  5.000000e+000
      vertex -8.618034e+000 -2.400000e+000  4.902113e+000
      vertex -8.668152e+000 -2.400000e+000  3.440969e+000
    endloop
  endfacet
  facet normal  0.000000e+000 -1.000000e+000  0.000000e+000
    outer loop
      vertex -8.000000e+000 -2.400000e+000  5.000000e+000
      vertex -8.668152e+000 -2.400000e+000  3.440969e+000
      vertex -8.219138e+000 -2.400000e+000  3.816374e+000
    endloop
  endfacet
  facet normal  0.000000e+000 -1.000000e+000  0.000000e+000
    outer loop
      vertex -8.000000e+000 -2.400000e+000  5.000000e+000
      vertex -8.219138e+000 -2.400000e+000  3.816374e+000
      vertex -7.660643e+000 -2.400000e+000  3.991373e+000
    endloop
  endfacet
  facet normal  0.000000e+000 -1.000000e+000  0.000000e+000
    outer loop
      vertex -8.000000e+000 -2.400000e+000  5.000000e+000
      vertex -7.660643e+000 -2.400000e+000  3.991373e+000
      vertex -7.077691e+000 -2.400000e+000  3.939324e+000
    endloop
  endfacet
  facet normal  0.000000e+000 -1.000000e+000  0.000000e+000
    outer loop
      vertex -8.000000e+000 -2.400000e+000  5.000000e+000
      vertex -7.077691e+000 -2.400000e+000  3.939324e+000
      vertex -6.559031e+000 -2.400000e+000  3.668152e+000
    endloop
  endfacet
  facet normal  0.000000e+000 -1.000000e+000  0.000000e+000
    outer loop
      vertex -2.000000e+000 -2.400000e+000  5.000000e+000
      vertex -8.000000e+000 -2.400000e+000  5.000000e+000
      vertex -6.559031e+000 -2.400000e+000  3.668152e+000
    endloop
  endfacet
  facet normal  0.000000e+000 -1.000000e+000  0.000000e+000
    outer loop
      vertex -2.000000e+000 -2.400000e+000  5.000000e+000
      vertex -6.559031e+000 -2.400000e+000  3.668152e+000
      vertex -6.183626e+000 -2.400000e+000  3.219138e+000
    endloop
  endfacet
  facet normal  0.000000e+000 -1.000000e+000  0.000000e+000
    outer loop
      vertex -2.000000e+000 -2.400000e+000  5.000000e+000
      vertex -6.183626e+000 -2.400000e+000  3.219138e+000
      vertex -6.008627e+000 -2.400000e+000  2.660643e+000
    endloop
  endfacet
  facet normal  0.000000e+000 -1.000000e+000  -0.000000e+000
    outer loop
      vertex -2.000000e+000 -2.400000e+000  5.000000e+000
      vertex -6.008627e+000 -2.400000e+000  2.660643e+000
      vertex -6.060676e+000 -2.400000e+000  2.077691e+000
    endloop
  endfacet
  facet normal  0.000000e+000 -1.000000e+000  0.000000e+000
    outer loop
      vertex -2.000000e+000 -2.400000e+000  5.000000e+000
      vertex -6.060676e+000 -2.400000e+000  2.077691e+000
      vertex -2.000000e+000 -2.400000e+000 -1.110223e-015
    endloop
  endfacet
  facet normal  0.000000e+000 -1.000000e+000  0.000000e+000
    outer loop
      vertex -8.991373e+000 -2.400000e+000  2.339357e+000
      vertex -1.000000e+001 -2.400000e+000  2.000000e+000
      vertex -9.902113e+000 -2.400000e+000  1.381966e+000
    endloop
  endfacet
  facet normal  0.000000e+000 -1.000000e+000  0.000000e+000
    outer loop
      vertex -8.991373e+000 -2.400000e+000  2.339357e+000
      vertex -9.902113e+000 -2.400000e+000  1.381966e+000
      vertex -9.618034e+000 -2.400000e+000  8.244295e-001
    endloop
  endfacet
  facet normal  0.000000e+000 -1.000000e+000  0.000000e+000
    outer loop
      vertex -8.991373e+000 -2.400000e+000  2.339357e+000
      vertex -9.618034e+000 -2.400000e+000  8.244295e-001
      vertex -9.175570e+000 -2.400000e+000  3.819660e-001
    endloop
  endfacet
  facet normal  0.000000e+000 -1.000000e+000  0.000000e+000
    outer loop
      vertex -8.991373e+000 -2.400000e+000  2.339357e+000
      vertex -9.175570e+000 -2.400000e+000  3.819660e-001
      vertex -8.816374e+000 -2.400000e+000  1.780862e+000
    endloop
  endfacet
  facet normal  -0.000000e+000 -1.000000e+000  0.000000e+000
    outer loop
      vertex -8.000000e+000 -2.400000e+000 -2.664535e-015
      vertex -2.000000e+000 -2.400000e+000 -1.110223e-015
      vertex -6.331848e+000 -2.400000e+000  1.559031e+000
    endloop
  endfacet
  facet normal  0.000000e+000 -1.000000e+000  0.000000e+000
    outer loop
      vertex -8.000000e+000 -2.400000e+000 -2.664535e-015
      vertex -6.331848e+000 -2.400000e+000  1.559031e+000
      vertex -6.780862e+000 -2.400000e+000  1.183626e+000
    endloop
  endfacet
  facet normal  0.000000e+000 -1.000000e+000  0.000000e+000
    outer loop
      vertex -8.000000e+000 -2.400000e+000 -2.664535e-015
      vertex -6.780862e+000 -2.400000e+000  1.183626e+000
      vertex -7.339357e+000 -2.400000e+000  1.008627e+000
    endloop
  endfacet
  facet normal  -0.000000e+000 -1.000000e+000  0.000000e+000
    outer loop
      vertex -8.000000e+000 -2.400000e+000 -2.664535e-015
      vertex -7.339357e+000 -2.400000e+000  1.008627e+000
      vertex -7.922309e+000 -2.400000e+000  1.060676e+000
    endloop
  endfacet
  facet normal  -0.000000e+000 -1.000000e+000  0.000000e+000
    outer loop
      vertex -8.000000e+000 -2.400000e+000 -2.664535e-015
      vertex -7.922309e+000 -2.400000e+000  1.060676e+000
      vertex -8.440969e+000 -2.400000e+000  1.331848e+000
    endloop
  endfacet
  facet normal  0.000000e+000 -1.000000e+000  -0.000000e+000
    outer loop
      vertex -8.000000e+000 -2.400000e+000 -2.664535e-015
      vertex -8.440969e+000 -2.400000e+000  1.331848e+000
      vertex -8.618034e+000 -2.400000e+000  9.788696e-002
    endloop
  endfacet
  facet normal  -0.000000e+000 -1.000000e+000  0.000000e+000
    outer loop
      vertex -1.000000e+001 -2.400000e+000  2.000000e+000
      vertex -8.991373e+000 -2.400000e+000  2.339357e+000
      vertex -1.000000e+001 -2.400000e+000  3.000000e+000
    endloop
  endfacet
  facet normal  0.000000e+000 -9.999999e-001  0.000000e+000
    outer loop
      vertex -1.000000e+001 -2.400000e+000  3.000000e+000
      vertex -8.991373e+000 -2.400000e+000  2.339357e+000
      vertex -8.939324e+000 -2.400000e+000  2.922309e+000
    endloop
  endfacet
  facet normal  0.000000e+000 -1.000000e+000  0.000000e+000
    outer loop
      vertex -1.000000e+001 -2.400000e+000  3.000000e+000
      vertex -8.939324e+000 -2.400000e+000  2.922309e+000
      vertex -9.902113e+000 -2.400000e+000  3.618034e+000
    endloop
  endfacet
  facet normal  0.000000e+000 -1.000000e+000  0.000000e+000
    outer loop
      vertex -9.902113e+000 -2.400000e+000  3.618034e+000
      vertex -8.939324e+000 -2.400000e+000  2.922309e+000
      vertex -9.175570e+000 -2.400000e+000  4.618034e+000
    endloop
  endfacet
  facet normal  0.000000e+000 -1.000000e+000  0.000000e+000
    outer loop
      vertex -9.902113e+000 -2.400000e+000  3.618034e+000
      vertex -9.175570e+000 -2.400000e+000  4.618034e+000
      vertex -9.618034e+000 -2.400000e+000  4.175570e+000
    endloop
  endfacet
  facet normal  0.000000e+000 -1.000000e+000  0.000000e+000
    outer loop
      vertex -9.175570e+000 -2.400000e+000  4.618034e+000
      vertex -8.939324e+000 -2.400000e+000  2.922309e+000
      vertex -8.618034e+000 -2.400000e+000  4.902113e+000
    endloop
  endfacet
  facet normal  0.000000e+000 -1.000000e+000  0.000000e+000
    outer loop
      vertex -8.618034e+000 -2.400000e+000  4.902113e+000
      vertex -8.939324e+000 -2.400000e+000  2.922309e+000
      vertex -8.668152e+000 -2.400000e+000  3.440969e+000
    endloop
  endfacet
  facet normal  0.000000e+000 -1.000000e+000  0.000000e+000
    outer loop
      vertex -8.816374e+000 -2.400000e+000  1.780862e+000
      vertex -9.175570e+000 -2.400000e+000  3.819660e-001
      vertex -8.440969e+000 -2.400000e+000  1.331848e+000
    endloop
  endfacet
  facet normal  0.000000e+000 -1.000000e+000  0.000000e+000
    outer loop
      vertex -8.440969e+000 -2.400000e+000  1.331848e+000
      vertex -9.175570e+000 -2.400000e+000  3.819660e-001
      vertex -8.618034e+000 -2.400000e+000  9.788696e-002
    endloop
  endfacet
  facet normal  0.000000e+000  0.000000e+000  1.000000e+000
    outer loop
      vertex  1.000000e+001  5.000000e+000  5.000000e+000
      vertex  5.050252e+000  3.900000e+000  5.000000e+000
      vertex  1.000000e+001  3.900000e+000  5.000000e+000
    endloop
  endfacet
  facet normal  0.000000e+000  0.000000e+000  1.000000e+000
    outer loop
      vertex -8.000000e+000 -2.400000e+000  5.000000e+000
      vertex -2.000000e+000 -2.400000e+000  5.000000e+000
      vertex -8.000000e+000  2.400000e+000  5.000000e+000
    endloop
  endfacet
  facet normal  -0.000000e+000  0.000000e+000  1.000000e+000
    outer loop
      vertex -2.000000e+000  2.400000e+000  5.000000e+000
      vertex -8.000000e+000  2.400000e+000  5.000000e+000
      vertex  5.050252e+000 -3.900000e+000  5.000000e+000
    endloop
  endfacet
  facet normal  0.000000e+000  0.000000e+000  1.000000e+000
    outer loop
      vertex  5.050252e+000 -3.900000e+000  5.000000e+000
      vertex -8.000000e+000  2.400000e+000  5.000000e+000
      vertex -2.000000e+000 -2.400000e+000  5.000000e+000
    endloop
  endfacet
  facet normal  0.000000e+000  0.000000e+000  9.999999e-001
    outer loop
      vertex  5.050252e+000 -3.900000e+000  5.000000e+000
      vertex -2.000000e+000 -2.400000e+000  5.000000e+000
      vertex -2.000000e+000 -5.000000e+000  5.000000e+000
    endloop
  endfacet
  facet normal  -0.000000e+000  0.000000e+000  1.000000e+000
    outer loop
      vertex  1.000000e+001  5.000000e+000  5.000000e+000
      vertex -2.000000e+000  5.000000e+000  5.000000e+000
      vertex  5.050252e+000  3.900000e+000  5.000000e+000
    endloop
  endfacet
  facet normal  0.000000e+000  0.000000e+000  9.999999e-001
    outer loop
      vertex  5.050252e+000  3.900000e+000  5.000000e+000
      vertex -2.000000e+000  5.000000e+000  5.000000e+000
      vertex -2.000000e+000  2.400000e+000  5.000000e+000
    endloop
  endfacet
  facet normal  -0.000000e+000  0.000000e+000  1.000000e+000
    outer loop
      vertex  5.050252e+000  3.900000e+000  5.000000e+000
      vertex -2.000000e+000  2.400000e+000  5.000000e+000
      vertex  5.050252e+000 -3.900000e+000  5.000000e+000
    endloop
  endfacet
  facet normal  0.000000e+000  0.000000e+000  1.000000e+000
    outer loop
      vertex -2.000000e+000 -5.000000e+000  5.000000e+000
      vertex  1.000000e+001 -5.000000e+000  5.000000e+000
      vertex  5.050252e+000 -3.900000e+000  5.000000e+000
    endloop
  endfacet
  facet normal  -0.000000e+000  0.000000e+000  1.000000e+000
    outer loop
      vertex  5.050252e+000 -3.900000e+000  5.000000e+000
      vertex  1.000000e+001 -5.000000e+000  5.000000e+000
      vertex  1.000000e+001 -3.900000e+000  5.000000e+000
    endloop
  endfacet
  facet normal -1.564345e-001  0.000000e+000  9.876884e-001
    outer loop
      vertex -8.000000e+000 -2.400000e+000  5.000000e+000
      vertex -8.000000e+000  2.400000e+000  5.000000e+000
      vertex -8.618034e+000 -2.400000e+000  4.902113e+000
    endloop
  endfacet
  facet normal -1.564345e-001  0.000000e+000  9.876884e-001
    outer loop
      vertex -8.618034e+000 -2.400000e+000  4.902113e+000
      vertex -8.000000e+000  2.400000e+000  5.000000e+000
      vertex -8.618034e+000  2.400000e+000  4.902113e+000
    endloop
  endfacet
  facet normal -4.539908e-001  0.000000e+000  8.910064e-001
    outer loop
      vertex -8.618034e+000 -2.400000e+000  4.902113e+000
      vertex -8.618034e+000  2.400000e+000  4.902113e+000
      vertex -9.175570e+000 -2.400000e+000  4.618034e+000
    endloop
  endfacet
  facet normal -4.539908e-001  0.000000e+000  8.910064e-001
    outer loop
      vertex -9.175570e+000 -2.400000e+000  4.618034e+000
      vertex -8.618034e+000  2.400000e+000  4.902113e+000
      vertex -9.175570e+000  2.400000e+000  4.618034e+000
    endloop
  endfacet
  facet normal -7.071063e-001  0.000000e+000  7.071071e-001
    outer loop
      vertex -9.175570e+000 -2.400000e+000  4.618034e+000
      vertex -9.175570e+000  2.400000e+000  4.618034e+000
      vertex -9.618034e+000 -2.400000e+000  4.175570e+000
    endloop
  endfacet
  facet normal -7.071063e-001  0.000000e+000  7.071071e-001
    outer loop
      vertex -9.618034e+000 -2.400000e+000  4.175570e+000
      vertex -9.175570e+000  2.400000e+000  4.618034e+000
      vertex -9.618034e+000  2.400000e+000  4.175570e+000
    endloop
  endfacet
  facet normal -8.910069e-001  0.000000e+000  4.539899e-001
    outer loop
      vertex -9.618034e+000 -2.400000e+000  4.175570e+000
      vertex -9.618034e+000  2.400000e+000  4.175570e+000
      vertex -9.902113e+000 -2.400000e+000  3.618034e+000
    endloop
  endfacet
  facet normal -8.910069e-001  0.000000e+000  4.539899e-001
    outer loop
      vertex -9.902113e+000 -2.400000e+000  3.618034e+000
      vertex -9.618034e+000  2.400000e+000  4.175570e+000
      vertex -9.902113e+000  2.400000e+000  3.618034e+000
    endloop
  endfacet
  facet normal -9.876884e-001  0.000000e+000  1.564346e-001
    outer loop
      vertex -9.902113e+000 -2.400000e+000  3.618034e+000
      vertex -9.902113e+000  2.400000e+000  3.618034e+000
      vertex -1.000000e+001 -2.400000e+000  3.000000e+000
    endloop
  endfacet
  facet normal -9.876884e-001  0.000000e+000  1.564346e-001
    outer loop
      vertex -1.000000e+001 -2.400000e+000  3.000000e+000
      vertex -9.902113e+000  2.400000e+000  3.618034e+000
      vertex -1.000000e+001  2.400000e+000  3.000000e+000
    endloop
  endfacet
  facet normal  0.000000e+000  0.000000e+000 -1.000000e+000
    outer loop
      vertex  1.000000e+001  5.000000e+000  0.000000e+000
      vertex  1.000000e+001 -5.000000e+000  0.000000e+000
      vertex -2.000000e+000 -5.000000e+000  0.000000e+000
    endloop
  endfacet
  facet normal  3.558407e-016 -4.270089e-016 -1.000000e+000
    outer loop
      vertex  1.000000e+001  5.000000e+000  0.000000e+000
      vertex -2.000000e+000 -5.000000e+000  0.000000e+000
      vertex -2.000000e+000 -2.400000e+000 -1.110223e-015
    endloop
  endfacet
  facet normal -5.011423e-017  2.312965e-016 -1.000000e+000
    outer loop
      vertex  1.000000e+001  5.000000e+000  0.000000e+000
      vertex -2.000000e+000 -2.400000e+000 -1.110223e-015
      vertex -2.000000e+000  2.400000e+000  0.000000e+000
    endloop
  endfacet
  facet normal  0.000000e+000  0.000000e+000 -1.000000e+000
    outer loop
      vertex  1.000000e+001  5.000000e+000  0.000000e+000
      vertex -2.000000e+000  2.400000e+000  0.000000e+000
      vertex -2.000000e+000  5.000000e+000  0.000000e+000
    endloop
  endfacet
  facet normal  0.000000e+000  5.551115e-016 -1.000000e+000
    outer loop
      vertex -8.000000e+000  2.400000e+000  0.000000e+000
      vertex -2.000000e+000  2.400000e+000  0.000000e+000
      vertex -8.000000e+000 -2.400000e+000 -2.664535e-015
    endloop
  endfacet
  facet normal  2.590520e-016  2.312965e-016 -1.000000e+000
    outer loop
      vertex -8.000000e+000 -2.400000e+000 -2.664535e-015
      vertex -2.000000e+000  2.400000e+000  0.000000e+000
      vertex -2.000000e+000 -2.400000e+000 -1.110223e-015
    endloop
  endfacet
  facet normal -9.876884e-001  -0.000000e+000 -1.564346e-001
    outer loop
      vertex -1.000000e+001 -2.400000e+000  2.000000e+000
      vertex -1.000000e+001  2.400000e+000  2.000000e+000
      vertex -9.902113e+000 -2.400000e+000  1.381966e+000
    endloop
  endfacet
  facet normal -9.876884e-001  0.000000e+000 -1.564346e-001
    outer loop
      vertex -9.902113e+000 -2.400000e+000  1.381966e+000
      vertex -1.000000e+001  2.400000e+000  2.000000e+000
      vertex -9.902113e+000  2.400000e+000  1.381966e+000
    endloop
  endfacet
  facet normal -8.910067e-001  -0.000000e+000 -4.539900e-001
    outer loop
      vertex -9.902113e+000 -2.400000e+000  1.381966e+000
      vertex -9.902113e+000  2.400000e+000  1.381966e+000
      vertex -9.618034e+000 -2.400000e+000  8.244295e-001
    endloop
  endfacet
  facet normal -8.910067e-001  0.000000e+000 -4.539900e-001
    outer loop
      vertex -9.618034e+000 -2.400000e+000  8.244295e-001
      vertex -9.902113e+000  2.400000e+000  1.381966e+000
      vertex -9.618034e+000  2.400000e+000  8.244295e-001
    endloop
  endfacet
  facet normal -7.071065e-001  -0.000000e+000 -7.071071e-001
    outer loop
      vertex -9.618034e+000 -2.400000e+000  8.244295e-001
      vertex -9.618034e+000  2.400000e+000  8.244295e-001
      vertex -9.175570e+000 -2.400000e+000  3.819660e-001
    endloop
  endfacet
  facet normal -7.071065e-001  0.000000e+000 -7.071071e-001
    outer loop
      vertex -9.175570e+000 -2.400000e+000  3.819660e-001
      vertex -9.618034e+000  2.400000e+000  8.244295e-001
      vertex -9.175570e+000  2.400000e+000  3.819660e-001
    endloop
  endfacet
  facet normal -4.539908e-001  -0.000000e+000 -8.910064e-001
    outer loop
      vertex -9.175570e+000 -2.400000e+000  3.819660e-001
      vertex -9.175570e+000  2.400000e+000  3.819660e-001
      vertex -8.618034e+000 -2.400000e+000  9.788696e-002
    endloop
  endfacet
  facet normal -4.539908e-001  0.000000e+000 -8.910064e-001
    outer loop
      vertex -8.618034e+000 -2.400000e+000  9.788696e-002
      vertex -9.175570e+000  2.400000e+000  3.819660e-001
      vertex -8.618034e+000  2.400000e+000  9.788696e-002
    endloop
  endfacet
  facet normal -1.564344e-001  -0.000000e+000 -9.876884e-001
    outer loop
      vertex -8.618034e+000 -2.400000e+000  9.788696e-002
      vertex -8.618034e+000  2.400000e+000  9.788696e-002
      vertex -8.000000e+000 -2.400000e+000 -2.664535e-015
    endloop
  endfacet
  facet normal -1.564344e-001  5.482772e-016 -9.876884e-001
    outer loop
      vertex -8.000000e+000 -2.400000e+000 -2.664535e-015
      vertex -8.618034e+000  2.400000e+000  9.788696e-002
      vertex -8.000000e+000  2.400000e+000  0.000000e+000
    endloop
  endfacet
  facet normal  6.414210e-001  0.000000e+000 -7.671890e-001
    outer loop
      vertex -8.219138e+000  2.400000e+000  3.816374e+000
      vertex -8.668152e+000 -2.400000e+000  3.440969e+000
      vertex -8.668152e+000  2.400000e+000  3.440969e+000
    endloop
  endfacet
  facet normal  8.861867e-001  0.000000e+000 -4.633283e-001
    outer loop
      vertex -8.668152e+000  2.400000e+000  3.440969e+000
      vertex -8.668152e+000 -2.400000e+000  3.440969e+000
      vertex -8.939324e+000 -2.400000e+000  2.922309e+000
    endloop
  endfacet
  facet normal  8.861867e-001  0.000000e+000 -4.633283e-001
    outer loop
      vertex -8.668152e+000  2.400000e+000  3.440969e+000
      vertex -8.939324e+000 -2.400000e+000  2.922309e+000
      vertex -8.939324e+000  2.400000e+000  2.922309e+000
    endloop
  endfacet
  facet normal  9.960378e-001  0.000000e+000 -8.893091e-002
    outer loop
      vertex -8.939324e+000  2.400000e+000  2.922309e+000
      vertex -8.939324e+000 -2.400000e+000  2.922309e+000
      vertex -8.991373e+000 -2.400000e+000  2.339357e+000
    endloop
  endfacet
  facet normal  9.960378e-001  0.000000e+000 -8.893091e-002
    outer loop
      vertex -8.939324e+000  2.400000e+000  2.922309e+000
      vertex -8.991373e+000 -2.400000e+000  2.339357e+000
      vertex -8.991373e+000  2.400000e+000  2.339357e+000
    endloop
  endfacet
  facet normal  9.542514e-001  0.000000e+000  2.990055e-001
    outer loop
      vertex -8.991373e+000  2.400000e+000  2.339357e+000
      vertex -8.991373e+000 -2.400000e+000  2.339357e+000
      vertex -8.816374e+000 -2.400000e+000  1.780862e+000
    endloop
  endfacet
  facet normal  9.542514e-001  -0.000000e+000  2.990055e-001
    outer loop
      vertex -8.991373e+000  2.400000e+000  2.339357e+000
      vertex -8.816374e+000 -2.400000e+000  1.780862e+000
      vertex -8.816374e+000  2.400000e+000  1.780862e+000
    endloop
  endfacet
  facet normal  6.414210e-001  0.000000e+000 -7.671890e-001
    outer loop
      vertex -8.668152e+000 -2.400000e+000  3.440969e+000
      vertex -8.219138e+000  2.400000e+000  3.816374e+000
      vertex -8.219138e+000 -2.400000e+000  3.816374e+000
    endloop
  endfacet
  facet normal  2.990056e-001  0.000000e+000 -9.542514e-001
    outer loop
      vertex -8.219138e+000 -2.400000e+000  3.816374e+000
      vertex -8.219138e+000  2.400000e+000  3.816374e+000
      vertex -7.660643e+000  2.400000e+000  3.991373e+000
    endloop
  endfacet
  facet normal  2.990056e-001  0.000000e+000 -9.542514e-001
    outer loop
      vertex -8.219138e+000 -2.400000e+000  3.816374e+000
      vertex -7.660643e+000  2.400000e+000  3.991373e+000
      vertex -7.660643e+000 -2.400000e+000  3.991373e+000
    endloop
  endfacet
  facet normal -8.893091e-002  0.000000e+000 -9.960378e-001
    outer loop
      vertex -7.660643e+000 -2.400000e+000  3.991373e+000
      vertex -7.660643e+000  2.400000e+000  3.991373e+000
      vertex -7.077691e+000  2.400000e+000  3.939324e+000
    endloop
  endfacet
  facet normal -8.893091e-002  -0.000000e+000 -9.960378e-001
    outer loop
      vertex -7.660643e+000 -2.400000e+000  3.991373e+000
      vertex -7.077691e+000  2.400000e+000  3.939324e+000
      vertex -7.077691e+000 -2.400000e+000  3.939324e+000
    endloop
  endfacet
  facet normal -4.633287e-001  0.000000e+000 -8.861865e-001
    outer loop
      vertex -7.077691e+000 -2.400000e+000  3.939324e+000
      vertex -7.077691e+000  2.400000e+000  3.939324e+000
      vertex -6.559031e+000  2.400000e+000  3.668152e+000
    endloop
  endfacet
  facet normal -4.633287e-001  -0.000000e+000 -8.861865e-001
    outer loop
      vertex -7.077691e+000 -2.400000e+000  3.939324e+000
      vertex -6.559031e+000  2.400000e+000  3.668152e+000
      vertex -6.559031e+000 -2.400000e+000  3.668152e+000
    endloop
  endfacet
  facet normal -7.671888e-001  0.000000e+000 -6.414215e-001
    outer loop
      vertex -6.559031e+000 -2.400000e+000  3.668152e+000
      vertex -6.559031e+000  2.400000e+000  3.668152e+000
      vertex -6.183626e+000  2.400000e+000  3.219138e+000
    endloop
  endfacet
  facet normal -7.671888e-001  -0.000000e+000 -6.414215e-001
    outer loop
      vertex -6.559031e+000 -2.400000e+000  3.668152e+000
      vertex -6.183626e+000  2.400000e+000  3.219138e+000
      vertex -6.183626e+000 -2.400000e+000  3.219138e+000
    endloop
  endfacet
  facet normal -6.414210e-001  0.000000e+000  7.671890e-001
    outer loop
      vertex -6.780862e+000  2.400000e+000  1.183626e+000
      vertex -6.331848e+000 -2.400000e+000  1.559031e+000
      vertex -6.331848e+000  2.400000e+000  1.559031e+000
    endloop
  endfacet
  facet normal -8.861867e-001  0.000000e+000  4.633283e-001
    outer loop
      vertex -6.331848e+000  2.400000e+000  1.559031e+000
      vertex -6.331848e+000 -2.400000e+000  1.559031e+000
      vertex -6.060676e+000 -2.400000e+000  2.077691e+000
    endloop
  endfacet
  facet normal -8.861867e-001  0.000000e+000  4.633283e-001
    outer loop
      vertex -6.331848e+000  2.400000e+000  1.559031e+000
      vertex -6.060676e+000 -2.400000e+000  2.077691e+000
      vertex -6.060676e+000  2.400000e+000  2.077691e+000
    endloop
  endfacet
  facet normal -9.960378e-001  0.000000e+000  8.893091e-002
    outer loop
      vertex -6.060676e+000  2.400000e+000  2.077691e+000
      vertex -6.060676e+000 -2.400000e+000  2.077691e+000
      vertex -6.008627e+000 -2.400000e+000  2.660643e+000
    endloop
  endfacet
  facet normal -9.960378e-001  0.000000e+000  8.893091e-002
    outer loop
      vertex -6.060676e+000  2.400000e+000  2.077691e+000
      vertex -6.008627e+000 -2.400000e+000  2.660643e+000
      vertex -6.008627e+000  2.400000e+000  2.660643e+000
    endloop
  endfacet
  facet normal -9.542514e-001  -0.000000e+000 -2.990054e-001
    outer loop
      vertex -6.008627e+000  2.400000e+000  2.660643e+000
      vertex -6.008627e+000 -2.400000e+000  2.660643e+000
      vertex -6.183626e+000 -2.400000e+000  3.219138e+000
    endloop
  endfacet
  facet normal -9.542514e-001  0.000000e+000 -2.990054e-001
    outer loop
      vertex -6.008627e+000  2.400000e+000  2.660643e+000
      vertex -6.183626e+000 -2.400000e+000  3.219138e+000
      vertex -6.183626e+000  2.400000e+000  3.219138e+000
    endloop
  endfacet
  facet normal -6.414210e-001  0.000000e+000  7.671890e-001
    outer loop
      vertex -6.331848e+000 -2.400000e+000  1.559031e+000
      vertex -6.780862e+000  2.400000e+000  1.183626e+000
      vertex -6.780862e+000 -2.400000e+000  1.183626e+000
    endloop
  endfacet
  facet normal -2.990057e-001  0.000000e+000  9.542513e-001
    outer loop
      vertex -6.780862e+000 -2.400000e+000  1.183626e+000
      vertex -6.780862e+000  2.400000e+000  1.183626e+000
      vertex -7.339357e+000  2.400000e+000  1.008627e+000
    endloop
  endfacet
  facet normal -2.990057e-001  0.000000e+000  9.542513e-001
    outer loop
      vertex -6.780862e+000 -2.400000e+000  1.183626e+000
      vertex -7.339357e+000  2.400000e+000  1.008627e+000
      vertex -7.339357e+000 -2.400000e+000  1.008627e+000
    endloop
  endfacet
  facet normal  8.893091e-002  -0.000000e+000  9.960378e-001
    outer loop
      vertex -7.339357e+000 -2.400000e+000  1.008627e+000
      vertex -7.339357e+000  2.400000e+000  1.008627e+000
      vertex -7.922309e+000  2.400000e+000  1.060676e+000
    endloop
  endfacet
  facet normal  8.893091e-002  0.000000e+000  9.960378e-001
    outer loop
      vertex -7.339357e+000 -2.400000e+000  1.008627e+000
      vertex -7.922309e+000  2.400000e+000  1.060676e+000
      vertex -7.922309e+000 -2.400000e+000  1.060676e+000
    endloop
  endfacet
  facet normal  4.633289e-001  -0.000000e+000  8.861865e-001
    outer loop
      vertex -7.922309e+000 -2.400000e+000  1.060676e+000
      vertex -7.922309e+000  2.400000e+000  1.060676e+000
      vertex -8.440969e+000  2.400000e+000  1.331848e+000
    endloop
  endfacet
  facet normal  4.633289e-001  0.000000e+000  8.861865e-001
    outer loop
      vertex -7.922309e+000 -2.400000e+000  1.060676e+000
      vertex -8.440969e+000  2.400000e+000  1.331848e+000
      vertex -8.440969e+000 -2.400000e+000  1.331848e+000
    endloop
  endfacet
  facet normal  7.671888e-001  -0.000000e+000  6.414214e-001
    outer loop
      vertex -8.440969e+000 -2.400000e+000  1.331848e+000
      vertex -8.440969e+000  2.400000e+000  1.331848e+000
      vertex -8.816374e+000  2.400000e+000  1.780862e+000
    endloop
  endfacet
  facet normal  7.671888e-001  0.000000e+000  6.414214e-001
    outer loop
      vertex -8.440969e+000 -2.400000e+000  1.331848e+000
      vertex -8.816374e+000  2.400000e+000  1.780862e+000
      vertex -8.816374e+000 -2.400000e+000  1.780862e+000
    endloop
  endfacet
  facet normal  0.000000e+000  1.000000e+000  0.000000e+000
    outer loop
      vertex  1.000000e+001  5.000000e+000  0.000000e+000
      vertex -2.000000e+000  5.000000e+000  0.000000e+000
      vertex  1.000000e+001  5.000000e+000  5.000000e+000
    endloop
  endfacet
  facet normal  0.000000e+000  1.000000e+000  0.000000e+000
    outer loop
      vertex  1.000000e+001  5.000000e+000  5.000000e+000
      vertex -2.000000e+000  5.000000e+000  0.000000e+000
      vertex -2.000000e+000  5.000000e+000  5.000000e+000
    endloop
  endfacet
  facet normal  0.000000e+000 -1.000000e+000  0.000000e+000
    outer loop
      vertex -2.000000e+000 -5.000000e+000  0.000000e+000
      vertex  1.000000e+001 -5.000000e+000  0.000000e+000
      vertex -2.000000e+000 -5.000000e+000  5.000000e+000
    endloop
  endfacet
  facet normal  0.000000e+000 -1.000000e+000  0.000000e+000
    outer loop
      vertex -2.000000e+000 -5.000000e+000  5.000000e+000
      vertex  1.000000e+001 -5.000000e+000  0.000000e+000
      vertex  1.000000e+001 -5.000000e+000  5.000000e+000
    endloop
  endfacet
  facet normal -1.000000e+000  0.000000e+000  0.000000e+000
    outer loop
      vertex -2.000000e+000  5.000000e+000  0.000000e+000
      vertex -2.000000e+000  2.400000e+000  0.000000e+000
      vertex -2.000000e+000  5.000000e+000  5.000000e+000
    endloop
  endfacet
  facet normal -1.000000e+000  -0.000000e+000  0.000000e+000
    outer loop
      vertex -2.000000e+000  5.000000e+000  5.000000e+000
      vertex -2.000000e+000  2.400000e+000  0.000000e+000
      vertex -2.000000e+000  2.400000e+000  5.000000e+000
    endloop
  endfacet
  facet normal -1.000000e+000  0.000000e+000  0.000000e+000
    outer loop
      vertex -2.000000e+000 -2.400000e+000 -1.110223e-015
      vertex -2.000000e+000 -5.000000e+000  0.000000e+000
      vertex -2.000000e+000 -2.400000e+000  5.000000e+000
    endloop
  endfacet
  facet normal -1.000000e+000  -0.000000e+000  0.000000e+000
    outer loop
      vertex -2.000000e+000 -2.400000e+000  5.000000e+000
      vertex -2.000000e+000 -5.000000e+000  0.000000e+000
      vertex -2.000000e+000 -5.000000e+000  5.000000e+000
    endloop
  endfacet
  facet normal  1.000000e+000  0.000000e+000  0.000000e+000
    outer loop
      vertex  1.000000e+001 -5.000000e+000  0.000000e+000
      vertex  1.000000e+001 -3.900000e+000  5.000000e+000
      vertex  1.000000e+001 -5.000000e+000  5.000000e+000
    endloop
  endfacet
  facet normal  1.000000e+000  0.000000e+000  0.000000e+000
    outer loop
      vertex  1.000000e+001 -3.900000e+000  5.000000e+000
      vertex  1.000000e+001 -5.000000e+000  0.000000e+000
      vertex  1.000000e+001 -3.900000e+000  5.025253e-002
    endloop
  endfacet
  facet normal  1.000000e+000  0.000000e+000  0.000000e+000
    outer loop
      vertex  1.000000e+001 -3.900000e+000  5.025253e-002
      vertex  1.000000e+001 -5.000000e+000  0.000000e+000
      vertex  1.000000e+001  5.000000e+000  0.000000e+000
    endloop
  endfacet
  facet normal  1.000000e+000  0.000000e+000  0.000000e+000
    outer loop
      vertex  1.000000e+001 -3.900000e+000  5.025253e-002
      vertex  1.000000e+001  5.000000e+000  0.000000e+000
      vertex  1.000000e+001  3.900000e+000  5.025253e-002
    endloop
  endfacet
  facet normal  1.000000e+000  -0.000000e+000  0.000000e+000
    outer loop
      vertex  1.000000e+001  3.900000e+000  5.025253e-002
      vertex  1.000000e+001  5.000000e+000  0.000000e+000
      vertex  1.000000e+001  5.000000e+000  5.000000e+000
    endloop
  endfacet
  facet normal  1.000000e+000  0.000000e+000  0.000000e+000
    outer loop
      vertex  1.000000e+001  3.900000e+000  5.025253e-002
      vertex  1.000000e+001  5.000000e+000  5.000000e+000
      vertex  1.000000e+001  3.900000e+000  5.000000e+000
    endloop
  endfacet
  facet normal  1.000000e+000  -0.000000e+000  0.000000e+000
    outer loop
      vertex  1.000000e+001  2.900000e+000  5.000000e+000
      vertex  1.000000e+001 -2.900000e+000  5.000000e+000
      vertex  1.000000e+001  2.900000e+000  1.464466e+000
    endloop
  endfacet
  facet normal  1.000000e+000  0.000000e+000  0.000000e+000
    outer loop
      vertex  1.000000e+001  2.900000e+000  1.464466e+000
      vertex  1.000000e+001 -2.900000e+000  5.000000e+000
      vertex  1.000000e+001 -2.900000e+000  1.464466e+000
    endloop
  endfacet
  facet normal  0.000000e+000  0.000000e+000  1.000000e+000
    outer loop
      vertex  6.464466e+000 -2.900000e+000  5.000000e+000
      vertex  1.000000e+001 -2.900000e+000  5.000000e+000
      vertex  6.464466e+000  2.900000e+000  5.000000e+000
    endloop
  endfacet
  facet normal  -0.000000e+000  0.000000e+000  1.000000e+000
    outer loop
      vertex  6.464466e+000  2.900000e+000  5.000000e+000
      vertex  1.000000e+001 -2.900000e+000  5.000000e+000
      vertex  1.000000e+001  2.900000e+000  5.000000e+000
    endloop
  endfacet
  facet normal -7.071068e-001  0.000000e+000  7.071068e-001
    outer loop
      vertex  5.050252e+000  3.900000e+000  5.000000e+000
      vertex  5.050252e+000 -3.900000e+000  5.000000e+000
      vertex  1.106066e+001  3.900000e+000  1.101041e+001
    endloop
  endfacet
  facet normal -7.071068e-001  0.000000e+000  7.071068e-001
    outer loop
      vertex  1.106066e+001  3.900000e+000  1.101041e+001
      vertex  5.050252e+000 -3.900000e+000  5.000000e+000
      vertex  1.106066e+001 -3.900000e+000  1.101041e+001
    endloop
  endfacet
  facet normal  0.000000e+000  1.000000e+000  0.000000e+000
    outer loop
      vertex  5.050252e+000  3.900000e+000  5.000000e+000
      vertex  1.106066e+001  3.900000e+000  1.101041e+001
      vertex  1.000000e+001  3.900000e+000  5.000000e+000
    endloop
  endfacet
  facet normal  0.000000e+000  1.000000e+000  0.000000e+000
    outer loop
      vertex  1.000000e+001  3.900000e+000  5.000000e+000
      vertex  1.106066e+001  3.900000e+000  1.101041e+001
      vertex  1.601041e+001  3.900000e+000  6.060660e+000
    endloop
  endfacet
  facet normal  0.000000e+000  1.000000e+000  0.000000e+000
    outer loop
      vertex  1.000000e+001  3.900000e+000  5.000000e+000
      vertex  1.601041e+001  3.900000e+000  6.060660e+000
      vertex  1.000000e+001  3.900000e+000  5.025253e-002
    endloop
  endfacet
  facet normal  7.071067e-001  0.000000e+000 -7.071068e-001
    outer loop
      vertex  1.000000e+001 -3.900000e+000  5.025253e-002
      vertex  1.000000e+001  3.900000e+000  5.025253e-002
      vertex  1.601041e+001 -3.900000e+000  6.060660e+000
    endloop
  endfacet
  facet normal  7.071067e-001  0.000000e+000 -7.071068e-001
    outer loop
      vertex  1.601041e+001 -3.900000e+000  6.060660e+000
      vertex  1.000000e+001  3.900000e+000  5.025253e-002
      vertex  1.601041e+001  3.900000e+000  6.060660e+000
    endloop
  endfacet
  facet normal  0.000000e+000 -1.000000e+000  0.000000e+000
    outer loop
      vertex  5.050252e+000 -3.900000e+000  5.000000e+000
      vertex  1.000000e+001 -3.900000e+000  5.000000e+000
      vertex  1.106066e+001 -3.900000e+000  1.101041e+001
    endloop
  endfacet
  facet normal  0.000000e+000 -9.999999e-001  0.000000e+000
    outer loop
      vertex  1.106066e+001 -3.900000e+000  1.101041e+001
      vertex  1.000000e+001 -3.900000e+000  5.000000e+000
      vertex  1.000000e+001 -3.900000e+000  5.025253e-002
    endloop
  endfacet
  facet normal  0.000000e+000 -9.999999e-001  0.000000e+000
    outer loop
      vertex  1.106066e+001 -3.900000e+000  1.101041e+001
      vertex  1.000000e+001 -3.900000e+000  5.025253e-002
      vertex  1.601041e+001 -3.900000e+000  6.060660e+000
    endloop
  endfacet
  facet normal  7.071068e-001  0.000000e+000 -7.071068e-001
    outer loop
      vertex  6.464466e+000  2.900000e+000  5.000000e+000
      vertex  1.176777e+001  2.900000e+000  1.030330e+001
      vertex  6.464466e+000 -2.900000e+000  5.000000e+000
    endloop
  endfacet
  facet normal  7.071068e-001  0.000000e+000 -7.071068e-001
    outer loop
      vertex  6.464466e+000 -2.900000e+000  5.000000e+000
      vertex  1.176777e+001  2.900000e+000  1.030330e+001
      vertex  1.176777e+001 -2.900000e+000  1.030330e+001
    endloop
  endfacet
  facet normal  0.000000e+000  1.000000e+000  0.000000e+000
    outer loop
      vertex  6.464466e+000 -2.900000e+000  5.000000e+000
      vertex  1.176777e+001 -2.900000e+000  1.030330e+001
      vertex  1.000000e+001 -2.900000e+000  5.000000e+000
    endloop
  endfacet
  facet normal  0.000000e+000  1.000000e+000  0.000000e+000
    outer loop
      vertex  1.000000e+001 -2.900000e+000  5.000000e+000
      vertex  1.176777e+001 -2.900000e+000  1.030330e+001
      vertex  1.530330e+001 -2.900000e+000  6.767767e+000
    endloop
  endfacet
  facet normal  0.000000e+000  1.000000e+000  0.000000e+000
    outer loop
      vertex  1.000000e+001 -2.900000e+000  5.000000e+000
      vertex  1.530330e+001 -2.900000e+000  6.767767e+000
      vertex  1.000000e+001 -2.900000e+000  1.464466e+000
    endloop
  endfacet
  facet normal -7.071068e-001  0.000000e+000  7.071068e-001
    outer loop
      vertex  1.000000e+001 -2.900000e+000  1.464466e+000
      vertex  1.530330e+001 -2.900000e+000  6.767767e+000
      vertex  1.000000e+001  2.900000e+000  1.464466e+000
    endloop
  endfacet
  facet normal -7.071068e-001  0.000000e+000  7.071068e-001
    outer loop
      vertex  1.000000e+001  2.900000e+000  1.464466e+000
      vertex  1.530330e+001 -2.900000e+000  6.767767e+000
      vertex  1.530330e+001  2.900000e+000  6.767767e+000
    endloop
  endfacet
  facet normal  0.000000e+000 -1.000000e+000  0.000000e+000
    outer loop
      vertex  1.000000e+001  2.900000e+000  1.464466e+000
      vertex  1.530330e+001  2.900000e+000  6.767767e+000
      vertex  1.000000e+001  2.900000e+000  5.000000e+000
    endloop
  endfacet
  facet normal  0.000000e+000 -1.000000e+000  0.000000e+000
    outer loop
      vertex  1.000000e+001  2.900000e+000  5.000000e+000
      vertex  1.530330e+001  2.900000e+000  6.767767e+000
      vertex  1.176777e+001  2.900000e+000  1.030330e+001
    endloop
  endfacet
  facet normal  0.000000e+000 -1.000000e+000  0.000000e+000
    outer loop
      vertex  1.000000e+001  2.900000e+000  5.000000e+000
      vertex  1.176777e+001  2.900000e+000  1.030330e+001
      vertex  6.464466e+000  2.900000e+000  5.000000e+000
    endloop
  endfacet
  facet normal  7.071068e-001 -5.790166e-007  7.071069e-001
    outer loop
      vertex  1.106066e+001  3.900000e+000  1.101041e+001
      vertex  1.530330e+001  2.900000e+000  6.767767e+000
      vertex  1.601041e+001  3.900000e+000  6.060660e+000
    endloop
  endfacet
  facet normal  7.071063e-001  0.000000e+000  7.071073e-001
    outer loop
      vertex  1.601041e+001  3.900000e+000  6.060660e+000
      vertex  1.530330e+001  2.900000e+000  6.767767e+000
      vertex  1.530330e+001 -2.900000e+000  6.767767e+000
    endloop
  endfacet
  facet normal  7.071063e-001  0.000000e+000  7.071073e-001
    outer loop
      vertex  1.601041e+001  3.900000e+000  6.060660e+000
      vertex  1.530330e+001 -2.900000e+000  6.767767e+000
      vertex  1.601041e+001 -3.900000e+000  6.060660e+000
    endloop
  endfacet
  facet normal  7.071068e-001  0.000000e+000  7.071068e-001
    outer loop
      vertex  1.530330e+001  2.900000e+000  6.767767e+000
      vertex  1.106066e+001  3.900000e+000  1.101041e+001
      vertex  1.176777e+001  2.900000e+000  1.030330e+001
    endloop
  endfacet
  facet normal  7.071068e-001  0.000000e+000  7.071068e-001
    outer loop
      vertex  1.176777e+001  2.900000e+000  1.030330e+001
      vertex  1.106066e+001  3.900000e+000  1.101041e+001
      vertex  1.106066e+001 -3.900000e+000  1.101041e+001
    endloop
  endfacet
  facet normal  7.071068e-001  0.000000e+000  7.071068e-001
    outer loop
      vertex  1.176777e+001  2.900000e+000  1.030330e+001
      vertex  1.106066e+001 -3.900000e+000  1.101041e+001
      vertex  1.176777e+001 -2.900000e+000  1.030330e+001
    endloop
  endfacet
  facet normal  7.071068e-001  1.021794e-007  7.071069e-001
    outer loop
      vertex  1.176777e+001 -2.900000e+000  1.030330e+001
      vertex  1.106066e+001 -3.900000e+000  1.101041e+001
      vertex  1.601041e+001 -3.900000e+000  6.060660e+000
    endloop
  endfacet
  facet normal  7.071068e-001  6.675720e-007  7.071068e-001
    outer loop
      vertex  1.176777e+001 -2.900000e+000  1.030330e+001
      vertex  1.601041e+001 -3.900000e+000  6.060660e+000
      vertex  1.530330e+001 -2.900000e+000  6.767767e+000
    endloop
  endfacet
endsolid CATIA STL
