solid CATIA STL
  facet normal  -0.000000e+000  0.000000e+000  1.000000e+000
    outer loop
      vertex -1.092173e+000  7.935101e-001  0.000000e+000
      vertex -2.437320e+000  5.563023e-001  0.000000e+000
      vertex -1.283926e+000  4.171729e-001  0.000000e+000
    endloop
  endfacet
  facet normal  0.000000e+000  -0.000000e+000  1.000000e+000
    outer loop
      vertex  1.092173e+000  7.935101e-001  0.000000e+000
      vertex  1.283926e+000  4.171729e-001  0.000000e+000
      vertex  2.437320e+000  5.563023e-001  0.000000e+000
    endloop
  endfacet
  facet normal  -0.000000e+000  -0.000000e+000  1.000000e+000
    outer loop
      vertex  8.266366e-017  1.350000e+000  0.000000e+000
      vertex  4.171729e-001  1.283926e+000  0.000000e+000
      vertex  2.252422e+000  1.084709e+000  0.000000e+000
    endloop
  endfacet
  facet normal  0.000000e+000  0.000000e+000  1.000000e+000
    outer loop
      vertex  8.266366e-017  1.350000e+000  0.000000e+000
      vertex  2.252422e+000  1.084709e+000  0.000000e+000
      vertex  1.954579e+000  1.558725e+000  0.000000e+000
    endloop
  endfacet
  facet normal  0.000000e+000  0.000000e+000  1.000000e+000
    outer loop
      vertex  8.266366e-017  1.350000e+000  0.000000e+000
      vertex  1.954579e+000  1.558725e+000  0.000000e+000
      vertex  1.558725e+000  1.954579e+000  0.000000e+000
    endloop
  endfacet
  facet normal  0.000000e+000  0.000000e+000  9.999999e-001
    outer loop
      vertex  8.266366e-017  1.350000e+000  0.000000e+000
      vertex  1.558725e+000  1.954579e+000  0.000000e+000
      vertex  1.084709e+000  2.252422e+000  0.000000e+000
    endloop
  endfacet
  facet normal  0.000000e+000  0.000000e+000  1.000000e+000
    outer loop
      vertex  8.266366e-017  1.350000e+000  0.000000e+000
      vertex  1.084709e+000  2.252422e+000  0.000000e+000
      vertex  5.563023e-001  2.437320e+000  0.000000e+000
    endloop
  endfacet
  facet normal  0.000000e+000  0.000000e+000  1.000000e+000
    outer loop
      vertex  8.266366e-017  1.350000e+000  0.000000e+000
      vertex  5.563023e-001  2.437320e+000  0.000000e+000
      vertex  1.530808e-016  2.500000e+000  0.000000e+000
    endloop
  endfacet
  facet normal  0.000000e+000  0.000000e+000  1.000000e+000
    outer loop
      vertex  8.266366e-017  1.350000e+000  0.000000e+000
      vertex  1.530808e-016  2.500000e+000  0.000000e+000
      vertex -5.563023e-001  2.437320e+000  0.000000e+000
    endloop
  endfacet
  facet normal  0.000000e+000  0.000000e+000  9.999999e-001
    outer loop
      vertex  8.266366e-017  1.350000e+000  0.000000e+000
      vertex -5.563023e-001  2.437320e+000  0.000000e+000
      vertex -1.084709e+000  2.252422e+000  0.000000e+000
    endloop
  endfacet
  facet normal  0.000000e+000  0.000000e+000  9.999999e-001
    outer loop
      vertex  8.266366e-017  1.350000e+000  0.000000e+000
      vertex -1.084709e+000  2.252422e+000  0.000000e+000
      vertex -1.558725e+000  1.954579e+000  0.000000e+000
    endloop
  endfacet
  facet normal  0.000000e+000  0.000000e+000  1.000000e+000
    outer loop
      vertex  8.266366e-017  1.350000e+000  0.000000e+000
      vertex -1.558725e+000  1.954579e+000  0.000000e+000
      vertex -1.954579e+000  1.558725e+000  0.000000e+000
    endloop
  endfacet
  facet normal  0.000000e+000  0.000000e+000  1.000000e+000
    outer loop
      vertex -2.252422e+000  1.084709e+000  0.000000e+000
      vertex -2.437320e+000  5.563023e-001  0.000000e+000
      vertex -1.092173e+000  7.935101e-001  0.000000e+000
    endloop
  endfacet
  facet normal  0.000000e+000  -0.000000e+000  9.999999e-001
    outer loop
      vertex -2.252422e+000  1.084709e+000  0.000000e+000
      vertex -1.092173e+000  7.935101e-001  0.000000e+000
      vertex -7.935101e-001  1.092173e+000  0.000000e+000
    endloop
  endfacet
  facet normal  0.000000e+000  -0.000000e+000  1.000000e+000
    outer loop
      vertex -2.252422e+000  1.084709e+000  0.000000e+000
      vertex -7.935101e-001  1.092173e+000  0.000000e+000
      vertex -4.171729e-001  1.283926e+000  0.000000e+000
    endloop
  endfacet
  facet normal  0.000000e+000  -0.000000e+000  1.000000e+000
    outer loop
      vertex -2.252422e+000  1.084709e+000  0.000000e+000
      vertex -4.171729e-001  1.283926e+000  0.000000e+000
      vertex  8.266366e-017  1.350000e+000  0.000000e+000
    endloop
  endfacet
  facet normal  0.000000e+000  0.000000e+000  1.000000e+000
    outer loop
      vertex -2.252422e+000  1.084709e+000  0.000000e+000
      vertex  8.266366e-017  1.350000e+000  0.000000e+000
      vertex -1.954579e+000  1.558725e+000  0.000000e+000
    endloop
  endfacet
  facet normal  0.000000e+000  -0.000000e+000  1.000000e+000
    outer loop
      vertex -1.954579e+000 -1.558725e+000  0.000000e+000
      vertex -4.592425e-016 -2.500000e+000  0.000000e+000
      vertex -2.479910e-016 -1.350000e+000  0.000000e+000
    endloop
  endfacet
  facet normal  0.000000e+000  0.000000e+000  1.000000e+000
    outer loop
      vertex -1.954579e+000 -1.558725e+000  0.000000e+000
      vertex -2.479910e-016 -1.350000e+000  0.000000e+000
      vertex -4.171729e-001 -1.283926e+000  0.000000e+000
    endloop
  endfacet
  facet normal  0.000000e+000  0.000000e+000  1.000000e+000
    outer loop
      vertex -1.954579e+000 -1.558725e+000  0.000000e+000
      vertex -4.171729e-001 -1.283926e+000  0.000000e+000
      vertex -7.935101e-001 -1.092173e+000  0.000000e+000
    endloop
  endfacet
  facet normal  0.000000e+000  0.000000e+000  1.000000e+000
    outer loop
      vertex -1.954579e+000 -1.558725e+000  0.000000e+000
      vertex -7.935101e-001 -1.092173e+000  0.000000e+000
      vertex -2.252422e+000 -1.084709e+000  0.000000e+000
    endloop
  endfacet
  facet normal  0.000000e+000  0.000000e+000  9.999999e-001
    outer loop
      vertex -4.592425e-016 -2.500000e+000  0.000000e+000
      vertex -1.954579e+000 -1.558725e+000  0.000000e+000
      vertex -1.558725e+000 -1.954579e+000  0.000000e+000
    endloop
  endfacet
  facet normal  0.000000e+000  0.000000e+000  1.000000e+000
    outer loop
      vertex -4.592425e-016 -2.500000e+000  0.000000e+000
      vertex -1.558725e+000 -1.954579e+000  0.000000e+000
      vertex -1.084709e+000 -2.252422e+000  0.000000e+000
    endloop
  endfacet
  facet normal  0.000000e+000  0.000000e+000  1.000000e+000
    outer loop
      vertex -4.592425e-016 -2.500000e+000  0.000000e+000
      vertex -1.084709e+000 -2.252422e+000  0.000000e+000
      vertex -5.563023e-001 -2.437320e+000  0.000000e+000
    endloop
  endfacet
  facet normal  0.000000e+000  -0.000000e+000  1.000000e+000
    outer loop
      vertex -4.592425e-016 -2.500000e+000  0.000000e+000
      vertex  5.563023e-001 -2.437320e+000  0.000000e+000
      vertex  1.084709e+000 -2.252422e+000  0.000000e+000
    endloop
  endfacet
  facet normal  0.000000e+000  -0.000000e+000  1.000000e+000
    outer loop
      vertex -4.592425e-016 -2.500000e+000  0.000000e+000
      vertex  1.084709e+000 -2.252422e+000  0.000000e+000
      vertex  1.558725e+000 -1.954579e+000  0.000000e+000
    endloop
  endfacet
  facet normal  0.000000e+000  -0.000000e+000  1.000000e+000
    outer loop
      vertex -4.592425e-016 -2.500000e+000  0.000000e+000
      vertex  1.558725e+000 -1.954579e+000  0.000000e+000
      vertex  1.954579e+000 -1.558725e+000  0.000000e+000
    endloop
  endfacet
  facet normal  0.000000e+000  0.000000e+000  1.000000e+000
    outer loop
      vertex -4.592425e-016 -2.500000e+000  0.000000e+000
      vertex  1.954579e+000 -1.558725e+000  0.000000e+000
      vertex -2.479910e-016 -1.350000e+000  0.000000e+000
    endloop
  endfacet
  facet normal  0.000000e+000  0.000000e+000  1.000000e+000
    outer loop
      vertex -1.283926e+000  4.171729e-001  0.000000e+000
      vertex -2.437320e+000  5.563023e-001  0.000000e+000
      vertex -1.350000e+000  1.653273e-016  0.000000e+000
    endloop
  endfacet
  facet normal  0.000000e+000  0.000000e+000  1.000000e+000
    outer loop
      vertex -1.350000e+000  1.653273e-016  0.000000e+000
      vertex -2.437320e+000  5.563023e-001  0.000000e+000
      vertex -2.500000e+000  3.061617e-016  0.000000e+000
    endloop
  endfacet
  facet normal  0.000000e+000  0.000000e+000  9.999999e-001
    outer loop
      vertex -1.350000e+000  1.653273e-016  0.000000e+000
      vertex -2.500000e+000  3.061617e-016  0.000000e+000
      vertex -1.283926e+000 -4.171729e-001  0.000000e+000
    endloop
  endfacet
  facet normal  0.000000e+000  0.000000e+000  1.000000e+000
    outer loop
      vertex -1.283926e+000 -4.171729e-001  0.000000e+000
      vertex -2.500000e+000  3.061617e-016  0.000000e+000
      vertex -2.437320e+000 -5.563023e-001  0.000000e+000
    endloop
  endfacet
  facet normal  -0.000000e+000  0.000000e+000  1.000000e+000
    outer loop
      vertex -1.283926e+000 -4.171729e-001  0.000000e+000
      vertex -2.437320e+000 -5.563023e-001  0.000000e+000
      vertex -1.092173e+000 -7.935101e-001  0.000000e+000
    endloop
  endfacet
  facet normal  0.000000e+000  0.000000e+000  1.000000e+000
    outer loop
      vertex -1.092173e+000 -7.935101e-001  0.000000e+000
      vertex -2.437320e+000 -5.563023e-001  0.000000e+000
      vertex -2.252422e+000 -1.084709e+000  0.000000e+000
    endloop
  endfacet
  facet normal  -0.000000e+000  0.000000e+000  9.999999e-001
    outer loop
      vertex -1.092173e+000 -7.935101e-001  0.000000e+000
      vertex -2.252422e+000 -1.084709e+000  0.000000e+000
      vertex -7.935101e-001 -1.092173e+000  0.000000e+000
    endloop
  endfacet
  facet normal  0.000000e+000  0.000000e+000  1.000000e+000
    outer loop
      vertex  1.092173e+000  7.935101e-001  0.000000e+000
      vertex  2.437320e+000  5.563023e-001  0.000000e+000
      vertex  7.935101e-001  1.092173e+000  0.000000e+000
    endloop
  endfacet
  facet normal  0.000000e+000  0.000000e+000  9.999999e-001
    outer loop
      vertex  7.935101e-001  1.092173e+000  0.000000e+000
      vertex  2.437320e+000  5.563023e-001  0.000000e+000
      vertex  2.252422e+000  1.084709e+000  0.000000e+000
    endloop
  endfacet
  facet normal  0.000000e+000  0.000000e+000  1.000000e+000
    outer loop
      vertex  7.935101e-001  1.092173e+000  0.000000e+000
      vertex  2.252422e+000  1.084709e+000  0.000000e+000
      vertex  4.171729e-001  1.283926e+000  0.000000e+000
    endloop
  endfacet
  facet normal  -0.000000e+000  0.000000e+000  1.000000e+000
    outer loop
      vertex  2.437320e+000  5.563023e-001  0.000000e+000
      vertex  1.283926e+000  4.171729e-001  0.000000e+000
      vertex  2.500000e+000  0.000000e+000  0.000000e+000
    endloop
  endfacet
  facet normal  0.000000e+000  0.000000e+000  9.999999e-001
    outer loop
      vertex  2.500000e+000  0.000000e+000  0.000000e+000
      vertex  1.283926e+000  4.171729e-001  0.000000e+000
      vertex  1.350000e+000  0.000000e+000  0.000000e+000
    endloop
  endfacet
  facet normal  -0.000000e+000  0.000000e+000  1.000000e+000
    outer loop
      vertex  2.500000e+000  0.000000e+000  0.000000e+000
      vertex  1.350000e+000  0.000000e+000  0.000000e+000
      vertex  2.437320e+000 -5.563023e-001  0.000000e+000
    endloop
  endfacet
  facet normal  0.000000e+000  0.000000e+000  1.000000e+000
    outer loop
      vertex  2.437320e+000 -5.563023e-001  0.000000e+000
      vertex  1.350000e+000  0.000000e+000  0.000000e+000
      vertex  1.283926e+000 -4.171729e-001  0.000000e+000
    endloop
  endfacet
  facet normal  0.000000e+000  0.000000e+000  1.000000e+000
    outer loop
      vertex  2.437320e+000 -5.563023e-001  0.000000e+000
      vertex  1.283926e+000 -4.171729e-001  0.000000e+000
      vertex  2.252422e+000 -1.084709e+000  0.000000e+000
    endloop
  endfacet
  facet normal  0.000000e+000  0.000000e+000  1.000000e+000
    outer loop
      vertex  2.252422e+000 -1.084709e+000  0.000000e+000
      vertex  1.283926e+000 -4.171729e-001  0.000000e+000
      vertex  1.092173e+000 -7.935101e-001  0.000000e+000
    endloop
  endfacet
  facet normal  0.000000e+000  0.000000e+000  9.999999e-001
    outer loop
      vertex  2.252422e+000 -1.084709e+000  0.000000e+000
      vertex  1.092173e+000 -7.935101e-001  0.000000e+000
      vertex  7.935101e-001 -1.092173e+000  0.000000e+000
    endloop
  endfacet
  facet normal  -0.000000e+000  0.000000e+000  1.000000e+000
    outer loop
      vertex  2.252422e+000 -1.084709e+000  0.000000e+000
      vertex  7.935101e-001 -1.092173e+000  0.000000e+000
      vertex  1.954579e+000 -1.558725e+000  0.000000e+000
    endloop
  endfacet
  facet normal  0.000000e+000  0.000000e+000  1.000000e+000
    outer loop
      vertex  1.954579e+000 -1.558725e+000  0.000000e+000
      vertex  7.935101e-001 -1.092173e+000  0.000000e+000
      vertex  4.171729e-001 -1.283926e+000  0.000000e+000
    endloop
  endfacet
  facet normal  0.000000e+000  0.000000e+000  1.000000e+000
    outer loop
      vertex  1.954579e+000 -1.558725e+000  0.000000e+000
      vertex  4.171729e-001 -1.283926e+000  0.000000e+000
      vertex -2.479910e-016 -1.350000e+000  0.000000e+000
    endloop
  endfacet
  facet normal  9.876884e-001 -1.564346e-001  0.000000e+000
    outer loop
      vertex  1.350000e+000  0.000000e+000  0.000000e+000
      vertex  1.350000e+000  0.000000e+000  1.400000e+001
      vertex  1.283926e+000 -4.171729e-001  0.000000e+000
    endloop
  endfacet
  facet normal  9.876884e-001 -1.564346e-001  0.000000e+000
    outer loop
      vertex  1.283926e+000 -4.171729e-001  0.000000e+000
      vertex  1.350000e+000  0.000000e+000  1.400000e+001
      vertex  1.283926e+000 -4.171729e-001  1.400000e+001
    endloop
  endfacet
  facet normal  8.910066e-001 -4.539903e-001  0.000000e+000
    outer loop
      vertex  1.283926e+000 -4.171729e-001  0.000000e+000
      vertex  1.283926e+000 -4.171729e-001  1.400000e+001
      vertex  1.092173e+000 -7.935101e-001  0.000000e+000
    endloop
  endfacet
  facet normal  8.910066e-001 -4.539903e-001  0.000000e+000
    outer loop
      vertex  1.092173e+000 -7.935101e-001  0.000000e+000
      vertex  1.283926e+000 -4.171729e-001  1.400000e+001
      vertex  1.092173e+000 -7.935101e-001  1.400000e+001
    endloop
  endfacet
  facet normal  7.071068e-001 -7.071068e-001  0.000000e+000
    outer loop
      vertex  1.092173e+000 -7.935101e-001  0.000000e+000
      vertex  1.092173e+000 -7.935101e-001  1.400000e+001
      vertex  7.935101e-001 -1.092173e+000  0.000000e+000
    endloop
  endfacet
  facet normal  7.071068e-001 -7.071068e-001  0.000000e+000
    outer loop
      vertex  7.935101e-001 -1.092173e+000  0.000000e+000
      vertex  1.092173e+000 -7.935101e-001  1.400000e+001
      vertex  7.935101e-001 -1.092173e+000  1.400000e+001
    endloop
  endfacet
  facet normal  4.539903e-001 -8.910066e-001  0.000000e+000
    outer loop
      vertex  7.935101e-001 -1.092173e+000  0.000000e+000
      vertex  7.935101e-001 -1.092173e+000  1.400000e+001
      vertex  4.171729e-001 -1.283926e+000  0.000000e+000
    endloop
  endfacet
  facet normal  4.539903e-001 -8.910066e-001  0.000000e+000
    outer loop
      vertex  4.171729e-001 -1.283926e+000  0.000000e+000
      vertex  7.935101e-001 -1.092173e+000  1.400000e+001
      vertex  4.171729e-001 -1.283926e+000  1.400000e+001
    endloop
  endfacet
  facet normal  1.564346e-001 -9.876884e-001  0.000000e+000
    outer loop
      vertex  4.171729e-001 -1.283926e+000  0.000000e+000
      vertex  4.171729e-001 -1.283926e+000  1.400000e+001
      vertex -2.479910e-016 -1.350000e+000  0.000000e+000
    endloop
  endfacet
  facet normal  1.564346e-001 -9.876884e-001  0.000000e+000
    outer loop
      vertex -2.479910e-016 -1.350000e+000  0.000000e+000
      vertex  4.171729e-001 -1.283926e+000  1.400000e+001
      vertex -2.479910e-016 -1.350000e+000  1.400000e+001
    endloop
  endfacet
  facet normal -1.564346e-001 -9.876884e-001  -0.000000e+000
    outer loop
      vertex -2.479910e-016 -1.350000e+000  0.000000e+000
      vertex -2.479910e-016 -1.350000e+000  1.400000e+001
      vertex -4.171729e-001 -1.283926e+000  0.000000e+000
    endloop
  endfacet
  facet normal -1.564346e-001 -9.876884e-001  0.000000e+000
    outer loop
      vertex -4.171729e-001 -1.283926e+000  0.000000e+000
      vertex -2.479910e-016 -1.350000e+000  1.400000e+001
      vertex -4.171729e-001 -1.283926e+000  1.400000e+001
    endloop
  endfacet
  facet normal -4.539903e-001 -8.910066e-001  -0.000000e+000
    outer loop
      vertex -4.171729e-001 -1.283926e+000  0.000000e+000
      vertex -4.171729e-001 -1.283926e+000  1.400000e+001
      vertex -7.935101e-001 -1.092173e+000  0.000000e+000
    endloop
  endfacet
  facet normal -4.539903e-001 -8.910066e-001  0.000000e+000
    outer loop
      vertex -7.935101e-001 -1.092173e+000  0.000000e+000
      vertex -4.171729e-001 -1.283926e+000  1.400000e+001
      vertex -7.935101e-001 -1.092173e+000  1.400000e+001
    endloop
  endfacet
  facet normal -7.071068e-001 -7.071068e-001  -0.000000e+000
    outer loop
      vertex -7.935101e-001 -1.092173e+000  0.000000e+000
      vertex -7.935101e-001 -1.092173e+000  1.400000e+001
      vertex -1.092173e+000 -7.935101e-001  0.000000e+000
    endloop
  endfacet
  facet normal -7.071068e-001 -7.071068e-001  0.000000e+000
    outer loop
      vertex -1.092173e+000 -7.935101e-001  0.000000e+000
      vertex -7.935101e-001 -1.092173e+000  1.400000e+001
      vertex -1.092173e+000 -7.935101e-001  1.400000e+001
    endloop
  endfacet
  facet normal -8.910066e-001 -4.539903e-001  -0.000000e+000
    outer loop
      vertex -1.092173e+000 -7.935101e-001  0.000000e+000
      vertex -1.092173e+000 -7.935101e-001  1.400000e+001
      vertex -1.283926e+000 -4.171729e-001  0.000000e+000
    endloop
  endfacet
  facet normal -8.910066e-001 -4.539903e-001  0.000000e+000
    outer loop
      vertex -1.283926e+000 -4.171729e-001  0.000000e+000
      vertex -1.092173e+000 -7.935101e-001  1.400000e+001
      vertex -1.283926e+000 -4.171729e-001  1.400000e+001
    endloop
  endfacet
  facet normal -9.876884e-001 -1.564346e-001  -0.000000e+000
    outer loop
      vertex -1.283926e+000 -4.171729e-001  0.000000e+000
      vertex -1.283926e+000 -4.171729e-001  1.400000e+001
      vertex -1.350000e+000  1.653273e-016  0.000000e+000
    endloop
  endfacet
  facet normal -9.876884e-001 -1.564346e-001  0.000000e+000
    outer loop
      vertex -1.350000e+000  1.653273e-016  0.000000e+000
      vertex -1.283926e+000 -4.171729e-001  1.400000e+001
      vertex -1.350000e+000  1.653273e-016  1.400000e+001
    endloop
  endfacet
  facet normal -9.876884e-001  1.564346e-001  0.000000e+000
    outer loop
      vertex -1.350000e+000  1.653273e-016  0.000000e+000
      vertex -1.350000e+000  1.653273e-016  1.400000e+001
      vertex -1.283926e+000  4.171729e-001  0.000000e+000
    endloop
  endfacet
  facet normal -9.876884e-001  1.564346e-001  0.000000e+000
    outer loop
      vertex -1.283926e+000  4.171729e-001  0.000000e+000
      vertex -1.350000e+000  1.653273e-016  1.400000e+001
      vertex -1.283926e+000  4.171729e-001  1.400000e+001
    endloop
  endfacet
  facet normal -8.910066e-001  4.539903e-001  0.000000e+000
    outer loop
      vertex -1.283926e+000  4.171729e-001  0.000000e+000
      vertex -1.283926e+000  4.171729e-001  1.400000e+001
      vertex -1.092173e+000  7.935101e-001  0.000000e+000
    endloop
  endfacet
  facet normal -8.910066e-001  4.539903e-001  0.000000e+000
    outer loop
      vertex -1.092173e+000  7.935101e-001  0.000000e+000
      vertex -1.283926e+000  4.171729e-001  1.400000e+001
      vertex -1.092173e+000  7.935101e-001  1.400000e+001
    endloop
  endfacet
  facet normal -7.071068e-001  7.071068e-001  0.000000e+000
    outer loop
      vertex -1.092173e+000  7.935101e-001  0.000000e+000
      vertex -1.092173e+000  7.935101e-001  1.400000e+001
      vertex -7.935101e-001  1.092173e+000  0.000000e+000
    endloop
  endfacet
  facet normal -7.071068e-001  7.071068e-001  0.000000e+000
    outer loop
      vertex -7.935101e-001  1.092173e+000  0.000000e+000
      vertex -1.092173e+000  7.935101e-001  1.400000e+001
      vertex -7.935101e-001  1.092173e+000  1.400000e+001
    endloop
  endfacet
  facet normal -4.539903e-001  8.910066e-001  0.000000e+000
    outer loop
      vertex -7.935101e-001  1.092173e+000  0.000000e+000
      vertex -7.935101e-001  1.092173e+000  1.400000e+001
      vertex -4.171729e-001  1.283926e+000  0.000000e+000
    endloop
  endfacet
  facet normal -4.539903e-001  8.910066e-001  0.000000e+000
    outer loop
      vertex -4.171729e-001  1.283926e+000  0.000000e+000
      vertex -7.935101e-001  1.092173e+000  1.400000e+001
      vertex -4.171729e-001  1.283926e+000  1.400000e+001
    endloop
  endfacet
  facet normal -1.564346e-001  9.876884e-001  0.000000e+000
    outer loop
      vertex -4.171729e-001  1.283926e+000  0.000000e+000
      vertex -4.171729e-001  1.283926e+000  1.400000e+001
      vertex  8.266366e-017  1.350000e+000  0.000000e+000
    endloop
  endfacet
  facet normal -1.564346e-001  9.876884e-001  0.000000e+000
    outer loop
      vertex  8.266366e-017  1.350000e+000  0.000000e+000
      vertex -4.171729e-001  1.283926e+000  1.400000e+001
      vertex  8.266366e-017  1.350000e+000  1.400000e+001
    endloop
  endfacet
  facet normal  1.564346e-001  9.876884e-001  0.000000e+000
    outer loop
      vertex  8.266366e-017  1.350000e+000  0.000000e+000
      vertex  8.266366e-017  1.350000e+000  1.400000e+001
      vertex  4.171729e-001  1.283926e+000  0.000000e+000
    endloop
  endfacet
  facet normal  1.564346e-001  9.876884e-001  -0.000000e+000
    outer loop
      vertex  4.171729e-001  1.283926e+000  0.000000e+000
      vertex  8.266366e-017  1.350000e+000  1.400000e+001
      vertex  4.171729e-001  1.283926e+000  1.400000e+001
    endloop
  endfacet
  facet normal  4.539903e-001  8.910066e-001  0.000000e+000
    outer loop
      vertex  4.171729e-001  1.283926e+000  0.000000e+000
      vertex  4.171729e-001  1.283926e+000  1.400000e+001
      vertex  7.935101e-001  1.092173e+000  0.000000e+000
    endloop
  endfacet
  facet normal  4.539903e-001  8.910066e-001  -0.000000e+000
    outer loop
      vertex  7.935101e-001  1.092173e+000  0.000000e+000
      vertex  4.171729e-001  1.283926e+000  1.400000e+001
      vertex  7.935101e-001  1.092173e+000  1.400000e+001
    endloop
  endfacet
  facet normal  7.071068e-001  7.071068e-001  0.000000e+000
    outer loop
      vertex  7.935101e-001  1.092173e+000  0.000000e+000
      vertex  7.935101e-001  1.092173e+000  1.400000e+001
      vertex  1.092173e+000  7.935101e-001  0.000000e+000
    endloop
  endfacet
  facet normal  7.071068e-001  7.071068e-001  -0.000000e+000
    outer loop
      vertex  1.092173e+000  7.935101e-001  0.000000e+000
      vertex  7.935101e-001  1.092173e+000  1.400000e+001
      vertex  1.092173e+000  7.935101e-001  1.400000e+001
    endloop
  endfacet
  facet normal  8.910066e-001  4.539903e-001  0.000000e+000
    outer loop
      vertex  1.092173e+000  7.935101e-001  0.000000e+000
      vertex  1.092173e+000  7.935101e-001  1.400000e+001
      vertex  1.283926e+000  4.171729e-001  0.000000e+000
    endloop
  endfacet
  facet normal  8.910066e-001  4.539903e-001  -0.000000e+000
    outer loop
      vertex  1.283926e+000  4.171729e-001  0.000000e+000
      vertex  1.092173e+000  7.935101e-001  1.400000e+001
      vertex  1.283926e+000  4.171729e-001  1.400000e+001
    endloop
  endfacet
  facet normal  9.876884e-001  1.564346e-001  0.000000e+000
    outer loop
      vertex  1.283926e+000  4.171729e-001  0.000000e+000
      vertex  1.283926e+000  4.171729e-001  1.400000e+001
      vertex  1.350000e+000  0.000000e+000  0.000000e+000
    endloop
  endfacet
  facet normal  9.876884e-001  1.564346e-001  -0.000000e+000
    outer loop
      vertex  1.350000e+000  0.000000e+000  0.000000e+000
      vertex  1.283926e+000  4.171729e-001  1.400000e+001
      vertex  1.350000e+000  0.000000e+000  1.400000e+001
    endloop
  endfacet
  facet normal  0.000000e+000  0.000000e+000 -1.000000e+000
    outer loop
      vertex  1.530808e-016  2.500000e+000 -2.000000e+000
      vertex  5.563023e-001  2.437320e+000 -2.000000e+000
      vertex -5.563023e-001  2.437320e+000 -2.000000e+000
    endloop
  endfacet
  facet normal  0.000000e+000  0.000000e+000 -1.000000e+000
    outer loop
      vertex -4.592425e-016 -2.500000e+000 -2.000000e+000
      vertex -5.563023e-001 -2.437320e+000 -2.000000e+000
      vertex  5.563023e-001 -2.437320e+000 -2.000000e+000
    endloop
  endfacet
  facet normal  0.000000e+000  0.000000e+000 -1.000000e+000
    outer loop
      vertex  5.563023e-001 -2.437320e+000 -2.000000e+000
      vertex -5.563023e-001 -2.437320e+000 -2.000000e+000
      vertex -1.084709e+000 -2.252422e+000 -2.000000e+000
    endloop
  endfacet
  facet normal  0.000000e+000  0.000000e+000 -1.000000e+000
    outer loop
      vertex  5.563023e-001 -2.437320e+000 -2.000000e+000
      vertex -1.084709e+000 -2.252422e+000 -2.000000e+000
      vertex  1.084709e+000 -2.252422e+000 -2.000000e+000
    endloop
  endfacet
  facet normal  0.000000e+000  0.000000e+000 -1.000000e+000
    outer loop
      vertex  1.084709e+000 -2.252422e+000 -2.000000e+000
      vertex -1.084709e+000 -2.252422e+000 -2.000000e+000
      vertex -1.558725e+000 -1.954579e+000 -2.000000e+000
    endloop
  endfacet
  facet normal  0.000000e+000  0.000000e+000 -1.000000e+000
    outer loop
      vertex  1.084709e+000 -2.252422e+000 -2.000000e+000
      vertex -1.558725e+000 -1.954579e+000 -2.000000e+000
      vertex  1.558725e+000 -1.954579e+000 -2.000000e+000
    endloop
  endfacet
  facet normal  0.000000e+000  0.000000e+000 -1.000000e+000
    outer loop
      vertex  1.558725e+000 -1.954579e+000 -2.000000e+000
      vertex -1.558725e+000 -1.954579e+000 -2.000000e+000
      vertex -1.954579e+000 -1.558725e+000 -2.000000e+000
    endloop
  endfacet
  facet normal  0.000000e+000  0.000000e+000 -9.999999e-001
    outer loop
      vertex  1.558725e+000 -1.954579e+000 -2.000000e+000
      vertex -1.954579e+000 -1.558725e+000 -2.000000e+000
      vertex  1.954579e+000 -1.558725e+000 -2.000000e+000
    endloop
  endfacet
  facet normal  0.000000e+000  0.000000e+000 -1.000000e+000
    outer loop
      vertex  1.954579e+000 -1.558725e+000 -2.000000e+000
      vertex -1.954579e+000 -1.558725e+000 -2.000000e+000
      vertex -2.252422e+000 -1.084709e+000 -2.000000e+000
    endloop
  endfacet
  facet normal  0.000000e+000  0.000000e+000 -1.000000e+000
    outer loop
      vertex  1.954579e+000 -1.558725e+000 -2.000000e+000
      vertex -2.252422e+000 -1.084709e+000 -2.000000e+000
      vertex  2.252422e+000 -1.084709e+000 -2.000000e+000
    endloop
  endfacet
  facet normal  0.000000e+000  0.000000e+000 -9.999999e-001
    outer loop
      vertex  2.252422e+000 -1.084709e+000 -2.000000e+000
      vertex -2.252422e+000 -1.084709e+000 -2.000000e+000
      vertex -2.437320e+000 -5.563023e-001 -2.000000e+000
    endloop
  endfacet
  facet normal  0.000000e+000  0.000000e+000 -9.999999e-001
    outer loop
      vertex  2.252422e+000 -1.084709e+000 -2.000000e+000
      vertex -2.437320e+000 -5.563023e-001 -2.000000e+000
      vertex  2.437320e+000 -5.563023e-001 -2.000000e+000
    endloop
  endfacet
  facet normal  0.000000e+000  0.000000e+000 -1.000000e+000
    outer loop
      vertex  2.437320e+000 -5.563023e-001 -2.000000e+000
      vertex -2.437320e+000 -5.563023e-001 -2.000000e+000
      vertex -2.500000e+000  3.061617e-016 -2.000000e+000
    endloop
  endfacet
  facet normal  0.000000e+000  0.000000e+000 -9.999999e-001
    outer loop
      vertex  2.437320e+000 -5.563023e-001 -2.000000e+000
      vertex -2.500000e+000  3.061617e-016 -2.000000e+000
      vertex  2.500000e+000  0.000000e+000 -2.000000e+000
    endloop
  endfacet
  facet normal  0.000000e+000  0.000000e+000 -9.999999e-001
    outer loop
      vertex  2.500000e+000  0.000000e+000 -2.000000e+000
      vertex -2.500000e+000  3.061617e-016 -2.000000e+000
      vertex -2.437320e+000  5.563023e-001 -2.000000e+000
    endloop
  endfacet
  facet normal  0.000000e+000  0.000000e+000 -1.000000e+000
    outer loop
      vertex  2.500000e+000  0.000000e+000 -2.000000e+000
      vertex -2.437320e+000  5.563023e-001 -2.000000e+000
      vertex  2.437320e+000  5.563023e-001 -2.000000e+000
    endloop
  endfacet
  facet normal  0.000000e+000  0.000000e+000 -9.999999e-001
    outer loop
      vertex  2.437320e+000  5.563023e-001 -2.000000e+000
      vertex -2.437320e+000  5.563023e-001 -2.000000e+000
      vertex -2.252422e+000  1.084709e+000 -2.000000e+000
    endloop
  endfacet
  facet normal  0.000000e+000  0.000000e+000 -9.999999e-001
    outer loop
      vertex  2.437320e+000  5.563023e-001 -2.000000e+000
      vertex -2.252422e+000  1.084709e+000 -2.000000e+000
      vertex  2.252422e+000  1.084709e+000 -2.000000e+000
    endloop
  endfacet
  facet normal  0.000000e+000  0.000000e+000 -1.000000e+000
    outer loop
      vertex  2.252422e+000  1.084709e+000 -2.000000e+000
      vertex -2.252422e+000  1.084709e+000 -2.000000e+000
      vertex -1.954579e+000  1.558725e+000 -2.000000e+000
    endloop
  endfacet
  facet normal  0.000000e+000  0.000000e+000 -1.000000e+000
    outer loop
      vertex  2.252422e+000  1.084709e+000 -2.000000e+000
      vertex -1.954579e+000  1.558725e+000 -2.000000e+000
      vertex  1.954579e+000  1.558725e+000 -2.000000e+000
    endloop
  endfacet
  facet normal  0.000000e+000  0.000000e+000 -9.999999e-001
    outer loop
      vertex  1.954579e+000  1.558725e+000 -2.000000e+000
      vertex -1.954579e+000  1.558725e+000 -2.000000e+000
      vertex -1.558725e+000  1.954579e+000 -2.000000e+000
    endloop
  endfacet
  facet normal  0.000000e+000  0.000000e+000 -1.000000e+000
    outer loop
      vertex  1.954579e+000  1.558725e+000 -2.000000e+000
      vertex -1.558725e+000  1.954579e+000 -2.000000e+000
      vertex  1.558725e+000  1.954579e+000 -2.000000e+000
    endloop
  endfacet
  facet normal  0.000000e+000  0.000000e+000 -1.000000e+000
    outer loop
      vertex  1.558725e+000  1.954579e+000 -2.000000e+000
      vertex -1.558725e+000  1.954579e+000 -2.000000e+000
      vertex -1.084709e+000  2.252422e+000 -2.000000e+000
    endloop
  endfacet
  facet normal  0.000000e+000  0.000000e+000 -1.000000e+000
    outer loop
      vertex  1.558725e+000  1.954579e+000 -2.000000e+000
      vertex -1.084709e+000  2.252422e+000 -2.000000e+000
      vertex  1.084709e+000  2.252422e+000 -2.000000e+000
    endloop
  endfacet
  facet normal  0.000000e+000  0.000000e+000 -1.000000e+000
    outer loop
      vertex  1.084709e+000  2.252422e+000 -2.000000e+000
      vertex -1.084709e+000  2.252422e+000 -2.000000e+000
      vertex -5.563023e-001  2.437320e+000 -2.000000e+000
    endloop
  endfacet
  facet normal  0.000000e+000  0.000000e+000 -1.000000e+000
    outer loop
      vertex  1.084709e+000  2.252422e+000 -2.000000e+000
      vertex -5.563023e-001  2.437320e+000 -2.000000e+000
      vertex  5.563023e-001  2.437320e+000 -2.000000e+000
    endloop
  endfacet
  facet normal  9.937122e-001 -1.119645e-001  0.000000e+000
    outer loop
      vertex  2.500000e+000  0.000000e+000 -2.000000e+000
      vertex  2.500000e+000  0.000000e+000  0.000000e+000
      vertex  2.437320e+000 -5.563023e-001 -2.000000e+000
    endloop
  endfacet
  facet normal  9.937122e-001 -1.119645e-001  0.000000e+000
    outer loop
      vertex  2.437320e+000 -5.563023e-001 -2.000000e+000
      vertex  2.500000e+000  0.000000e+000  0.000000e+000
      vertex  2.437320e+000 -5.563023e-001  0.000000e+000
    endloop
  endfacet
  facet normal  9.438834e-001 -3.302791e-001  0.000000e+000
    outer loop
      vertex  2.437320e+000 -5.563023e-001 -2.000000e+000
      vertex  2.437320e+000 -5.563023e-001  0.000000e+000
      vertex  2.252422e+000 -1.084709e+000 -2.000000e+000
    endloop
  endfacet
  facet normal  9.438834e-001 -3.302791e-001  0.000000e+000
    outer loop
      vertex  2.252422e+000 -1.084709e+000 -2.000000e+000
      vertex  2.437320e+000 -5.563023e-001  0.000000e+000
      vertex  2.252422e+000 -1.084709e+000  0.000000e+000
    endloop
  endfacet
  facet normal  8.467243e-001 -5.320320e-001  0.000000e+000
    outer loop
      vertex  2.252422e+000 -1.084709e+000 -2.000000e+000
      vertex  2.252422e+000 -1.084709e+000  0.000000e+000
      vertex  1.954579e+000 -1.558725e+000 -2.000000e+000
    endloop
  endfacet
  facet normal  8.467243e-001 -5.320320e-001  0.000000e+000
    outer loop
      vertex  1.954579e+000 -1.558725e+000 -2.000000e+000
      vertex  2.252422e+000 -1.084709e+000  0.000000e+000
      vertex  1.954579e+000 -1.558725e+000  0.000000e+000
    endloop
  endfacet
  facet normal  7.071068e-001 -7.071068e-001  0.000000e+000
    outer loop
      vertex  1.954579e+000 -1.558725e+000 -2.000000e+000
      vertex  1.954579e+000 -1.558725e+000  0.000000e+000
      vertex  1.558725e+000 -1.954579e+000 -2.000000e+000
    endloop
  endfacet
  facet normal  7.071068e-001 -7.071068e-001  0.000000e+000
    outer loop
      vertex  1.558725e+000 -1.954579e+000 -2.000000e+000
      vertex  1.954579e+000 -1.558725e+000  0.000000e+000
      vertex  1.558725e+000 -1.954579e+000  0.000000e+000
    endloop
  endfacet
  facet normal  5.320320e-001 -8.467243e-001  0.000000e+000
    outer loop
      vertex  1.558725e+000 -1.954579e+000 -2.000000e+000
      vertex  1.558725e+000 -1.954579e+000  0.000000e+000
      vertex  1.084709e+000 -2.252422e+000 -2.000000e+000
    endloop
  endfacet
  facet normal  5.320320e-001 -8.467243e-001  0.000000e+000
    outer loop
      vertex  1.084709e+000 -2.252422e+000 -2.000000e+000
      vertex  1.558725e+000 -1.954579e+000  0.000000e+000
      vertex  1.084709e+000 -2.252422e+000  0.000000e+000
    endloop
  endfacet
  facet normal  3.302791e-001 -9.438834e-001  0.000000e+000
    outer loop
      vertex  1.084709e+000 -2.252422e+000 -2.000000e+000
      vertex  1.084709e+000 -2.252422e+000  0.000000e+000
      vertex  5.563023e-001 -2.437320e+000 -2.000000e+000
    endloop
  endfacet
  facet normal  3.302791e-001 -9.438834e-001  0.000000e+000
    outer loop
      vertex  5.563023e-001 -2.437320e+000 -2.000000e+000
      vertex  1.084709e+000 -2.252422e+000  0.000000e+000
      vertex  5.563023e-001 -2.437320e+000  0.000000e+000
    endloop
  endfacet
  facet normal  1.119645e-001 -9.937122e-001  0.000000e+000
    outer loop
      vertex  5.563023e-001 -2.437320e+000 -2.000000e+000
      vertex  5.563023e-001 -2.437320e+000  0.000000e+000
      vertex -4.592425e-016 -2.500000e+000 -2.000000e+000
    endloop
  endfacet
  facet normal  1.119645e-001 -9.937122e-001  0.000000e+000
    outer loop
      vertex -4.592425e-016 -2.500000e+000 -2.000000e+000
      vertex  5.563023e-001 -2.437320e+000  0.000000e+000
      vertex -4.592425e-016 -2.500000e+000  0.000000e+000
    endloop
  endfacet
  facet normal -1.119645e-001 -9.937122e-001  -0.000000e+000
    outer loop
      vertex -4.592425e-016 -2.500000e+000 -2.000000e+000
      vertex -4.592425e-016 -2.500000e+000  0.000000e+000
      vertex -5.563023e-001 -2.437320e+000 -2.000000e+000
    endloop
  endfacet
  facet normal -1.119645e-001 -9.937122e-001  0.000000e+000
    outer loop
      vertex -5.563023e-001 -2.437320e+000 -2.000000e+000
      vertex -4.592425e-016 -2.500000e+000  0.000000e+000
      vertex -5.563023e-001 -2.437320e+000  0.000000e+000
    endloop
  endfacet
  facet normal -3.302791e-001 -9.438834e-001  -0.000000e+000
    outer loop
      vertex -5.563023e-001 -2.437320e+000 -2.000000e+000
      vertex -5.563023e-001 -2.437320e+000  0.000000e+000
      vertex -1.084709e+000 -2.252422e+000 -2.000000e+000
    endloop
  endfacet
  facet normal -3.302791e-001 -9.438834e-001  0.000000e+000
    outer loop
      vertex -1.084709e+000 -2.252422e+000 -2.000000e+000
      vertex -5.563023e-001 -2.437320e+000  0.000000e+000
      vertex -1.084709e+000 -2.252422e+000  0.000000e+000
    endloop
  endfacet
  facet normal -5.320320e-001 -8.467243e-001  -0.000000e+000
    outer loop
      vertex -1.084709e+000 -2.252422e+000 -2.000000e+000
      vertex -1.084709e+000 -2.252422e+000  0.000000e+000
      vertex -1.558725e+000 -1.954579e+000 -2.000000e+000
    endloop
  endfacet
  facet normal -5.320320e-001 -8.467243e-001  0.000000e+000
    outer loop
      vertex -1.558725e+000 -1.954579e+000 -2.000000e+000
      vertex -1.084709e+000 -2.252422e+000  0.000000e+000
      vertex -1.558725e+000 -1.954579e+000  0.000000e+000
    endloop
  endfacet
  facet normal -7.071068e-001 -7.071068e-001  -0.000000e+000
    outer loop
      vertex -1.558725e+000 -1.954579e+000 -2.000000e+000
      vertex -1.558725e+000 -1.954579e+000  0.000000e+000
      vertex -1.954579e+000 -1.558725e+000 -2.000000e+000
    endloop
  endfacet
  facet normal -7.071068e-001 -7.071068e-001  0.000000e+000
    outer loop
      vertex -1.954579e+000 -1.558725e+000 -2.000000e+000
      vertex -1.558725e+000 -1.954579e+000  0.000000e+000
      vertex -1.954579e+000 -1.558725e+000  0.000000e+000
    endloop
  endfacet
  facet normal -8.467243e-001 -5.320320e-001  -0.000000e+000
    outer loop
      vertex -1.954579e+000 -1.558725e+000 -2.000000e+000
      vertex -1.954579e+000 -1.558725e+000  0.000000e+000
      vertex -2.252422e+000 -1.084709e+000 -2.000000e+000
    endloop
  endfacet
  facet normal -8.467243e-001 -5.320320e-001  0.000000e+000
    outer loop
      vertex -2.252422e+000 -1.084709e+000 -2.000000e+000
      vertex -1.954579e+000 -1.558725e+000  0.000000e+000
      vertex -2.252422e+000 -1.084709e+000  0.000000e+000
    endloop
  endfacet
  facet normal -9.438834e-001 -3.302791e-001  -0.000000e+000
    outer loop
      vertex -2.252422e+000 -1.084709e+000 -2.000000e+000
      vertex -2.252422e+000 -1.084709e+000  0.000000e+000
      vertex -2.437320e+000 -5.563023e-001 -2.000000e+000
    endloop
  endfacet
  facet normal -9.438834e-001 -3.302791e-001  0.000000e+000
    outer loop
      vertex -2.437320e+000 -5.563023e-001 -2.000000e+000
      vertex -2.252422e+000 -1.084709e+000  0.000000e+000
      vertex -2.437320e+000 -5.563023e-001  0.000000e+000
    endloop
  endfacet
  facet normal -9.937122e-001 -1.119645e-001  -0.000000e+000
    outer loop
      vertex -2.437320e+000 -5.563023e-001 -2.000000e+000
      vertex -2.437320e+000 -5.563023e-001  0.000000e+000
      vertex -2.500000e+000  3.061617e-016 -2.000000e+000
    endloop
  endfacet
  facet normal -9.937122e-001 -1.119645e-001  0.000000e+000
    outer loop
      vertex -2.500000e+000  3.061617e-016 -2.000000e+000
      vertex -2.437320e+000 -5.563023e-001  0.000000e+000
      vertex -2.500000e+000  3.061617e-016  0.000000e+000
    endloop
  endfacet
  facet normal -9.937122e-001  1.119645e-001  0.000000e+000
    outer loop
      vertex -2.500000e+000  3.061617e-016 -2.000000e+000
      vertex -2.500000e+000  3.061617e-016  0.000000e+000
      vertex -2.437320e+000  5.563023e-001 -2.000000e+000
    endloop
  endfacet
  facet normal -9.937122e-001  1.119645e-001  0.000000e+000
    outer loop
      vertex -2.437320e+000  5.563023e-001 -2.000000e+000
      vertex -2.500000e+000  3.061617e-016  0.000000e+000
      vertex -2.437320e+000  5.563023e-001  0.000000e+000
    endloop
  endfacet
  facet normal -9.438834e-001  3.302791e-001  0.000000e+000
    outer loop
      vertex -2.437320e+000  5.563023e-001 -2.000000e+000
      vertex -2.437320e+000  5.563023e-001  0.000000e+000
      vertex -2.252422e+000  1.084709e+000 -2.000000e+000
    endloop
  endfacet
  facet normal -9.438834e-001  3.302791e-001  0.000000e+000
    outer loop
      vertex -2.252422e+000  1.084709e+000 -2.000000e+000
      vertex -2.437320e+000  5.563023e-001  0.000000e+000
      vertex -2.252422e+000  1.084709e+000  0.000000e+000
    endloop
  endfacet
  facet normal -8.467243e-001  5.320320e-001  0.000000e+000
    outer loop
      vertex -2.252422e+000  1.084709e+000 -2.000000e+000
      vertex -2.252422e+000  1.084709e+000  0.000000e+000
      vertex -1.954579e+000  1.558725e+000 -2.000000e+000
    endloop
  endfacet
  facet normal -8.467243e-001  5.320320e-001  0.000000e+000
    outer loop
      vertex -1.954579e+000  1.558725e+000 -2.000000e+000
      vertex -2.252422e+000  1.084709e+000  0.000000e+000
      vertex -1.954579e+000  1.558725e+000  0.000000e+000
    endloop
  endfacet
  facet normal -7.071068e-001  7.071068e-001  0.000000e+000
    outer loop
      vertex -1.954579e+000  1.558725e+000 -2.000000e+000
      vertex -1.954579e+000  1.558725e+000  0.000000e+000
      vertex -1.558725e+000  1.954579e+000 -2.000000e+000
    endloop
  endfacet
  facet normal -7.071068e-001  7.071068e-001  0.000000e+000
    outer loop
      vertex -1.558725e+000  1.954579e+000 -2.000000e+000
      vertex -1.954579e+000  1.558725e+000  0.000000e+000
      vertex -1.558725e+000  1.954579e+000  0.000000e+000
    endloop
  endfacet
  facet normal -5.320320e-001  8.467243e-001  0.000000e+000
    outer loop
      vertex -1.558725e+000  1.954579e+000 -2.000000e+000
      vertex -1.558725e+000  1.954579e+000  0.000000e+000
      vertex -1.084709e+000  2.252422e+000 -2.000000e+000
    endloop
  endfacet
  facet normal -5.320320e-001  8.467243e-001  0.000000e+000
    outer loop
      vertex -1.084709e+000  2.252422e+000 -2.000000e+000
      vertex -1.558725e+000  1.954579e+000  0.000000e+000
      vertex -1.084709e+000  2.252422e+000  0.000000e+000
    endloop
  endfacet
  facet normal -3.302791e-001  9.438834e-001  0.000000e+000
    outer loop
      vertex -1.084709e+000  2.252422e+000 -2.000000e+000
      vertex -1.084709e+000  2.252422e+000  0.000000e+000
      vertex -5.563023e-001  2.437320e+000 -2.000000e+000
    endloop
  endfacet
  facet normal -3.302791e-001  9.438834e-001  0.000000e+000
    outer loop
      vertex -5.563023e-001  2.437320e+000 -2.000000e+000
      vertex -1.084709e+000  2.252422e+000  0.000000e+000
      vertex -5.563023e-001  2.437320e+000  0.000000e+000
    endloop
  endfacet
  facet normal -1.119645e-001  9.937122e-001  0.000000e+000
    outer loop
      vertex -5.563023e-001  2.437320e+000 -2.000000e+000
      vertex -5.563023e-001  2.437320e+000  0.000000e+000
      vertex  1.530808e-016  2.500000e+000 -2.000000e+000
    endloop
  endfacet
  facet normal -1.119645e-001  9.937122e-001  0.000000e+000
    outer loop
      vertex  1.530808e-016  2.500000e+000 -2.000000e+000
      vertex -5.563023e-001  2.437320e+000  0.000000e+000
      vertex  1.530808e-016  2.500000e+000  0.000000e+000
    endloop
  endfacet
  facet normal  1.119645e-001  9.937122e-001  0.000000e+000
    outer loop
      vertex  1.530808e-016  2.500000e+000 -2.000000e+000
      vertex  1.530808e-016  2.500000e+000  0.000000e+000
      vertex  5.563023e-001  2.437320e+000 -2.000000e+000
    endloop
  endfacet
  facet normal  1.119645e-001  9.937122e-001  -0.000000e+000
    outer loop
      vertex  5.563023e-001  2.437320e+000 -2.000000e+000
      vertex  1.530808e-016  2.500000e+000  0.000000e+000
      vertex  5.563023e-001  2.437320e+000  0.000000e+000
    endloop
  endfacet
  facet normal  3.302791e-001  9.438834e-001  0.000000e+000
    outer loop
      vertex  5.563023e-001  2.437320e+000 -2.000000e+000
      vertex  5.563023e-001  2.437320e+000  0.000000e+000
      vertex  1.084709e+000  2.252422e+000 -2.000000e+000
    endloop
  endfacet
  facet normal  3.302791e-001  9.438834e-001  -0.000000e+000
    outer loop
      vertex  1.084709e+000  2.252422e+000 -2.000000e+000
      vertex  5.563023e-001  2.437320e+000  0.000000e+000
      vertex  1.084709e+000  2.252422e+000  0.000000e+000
    endloop
  endfacet
  facet normal  5.320320e-001  8.467243e-001  0.000000e+000
    outer loop
      vertex  1.084709e+000  2.252422e+000 -2.000000e+000
      vertex  1.084709e+000  2.252422e+000  0.000000e+000
      vertex  1.558725e+000  1.954579e+000 -2.000000e+000
    endloop
  endfacet
  facet normal  5.320320e-001  8.467243e-001  -0.000000e+000
    outer loop
      vertex  1.558725e+000  1.954579e+000 -2.000000e+000
      vertex  1.084709e+000  2.252422e+000  0.000000e+000
      vertex  1.558725e+000  1.954579e+000  0.000000e+000
    endloop
  endfacet
  facet normal  7.071068e-001  7.071068e-001  0.000000e+000
    outer loop
      vertex  1.558725e+000  1.954579e+000 -2.000000e+000
      vertex  1.558725e+000  1.954579e+000  0.000000e+000
      vertex  1.954579e+000  1.558725e+000 -2.000000e+000
    endloop
  endfacet
  facet normal  7.071068e-001  7.071068e-001  -0.000000e+000
    outer loop
      vertex  1.954579e+000  1.558725e+000 -2.000000e+000
      vertex  1.558725e+000  1.954579e+000  0.000000e+000
      vertex  1.954579e+000  1.558725e+000  0.000000e+000
    endloop
  endfacet
  facet normal  8.467243e-001  5.320320e-001  0.000000e+000
    outer loop
      vertex  1.954579e+000  1.558725e+000 -2.000000e+000
      vertex  1.954579e+000  1.558725e+000  0.000000e+000
      vertex  2.252422e+000  1.084709e+000 -2.000000e+000
    endloop
  endfacet
  facet normal  8.467243e-001  5.320320e-001  -0.000000e+000
    outer loop
      vertex  2.252422e+000  1.084709e+000 -2.000000e+000
      vertex  1.954579e+000  1.558725e+000  0.000000e+000
      vertex  2.252422e+000  1.084709e+000  0.000000e+000
    endloop
  endfacet
  facet normal  9.438834e-001  3.302791e-001  0.000000e+000
    outer loop
      vertex  2.252422e+000  1.084709e+000 -2.000000e+000
      vertex  2.252422e+000  1.084709e+000  0.000000e+000
      vertex  2.437320e+000  5.563023e-001 -2.000000e+000
    endloop
  endfacet
  facet normal  9.438834e-001  3.302791e-001  -0.000000e+000
    outer loop
      vertex  2.437320e+000  5.563023e-001 -2.000000e+000
      vertex  2.252422e+000  1.084709e+000  0.000000e+000
      vertex  2.437320e+000  5.563023e-001  0.000000e+000
    endloop
  endfacet
  facet normal  9.937122e-001  1.119645e-001  0.000000e+000
    outer loop
      vertex  2.437320e+000  5.563023e-001 -2.000000e+000
      vertex  2.437320e+000  5.563023e-001  0.000000e+000
      vertex  2.500000e+000  0.000000e+000 -2.000000e+000
    endloop
  endfacet
  facet normal  9.937122e-001  1.119645e-001  -0.000000e+000
    outer loop
      vertex  2.500000e+000  0.000000e+000 -2.000000e+000
      vertex  2.437320e+000  5.563023e-001  0.000000e+000
      vertex  2.500000e+000  0.000000e+000  0.000000e+000
    endloop
  endfacet
  facet normal  0.000000e+000  0.000000e+000  1.000000e+000
    outer loop
      vertex -4.171729e-001  1.283926e+000  1.400000e+001
      vertex  4.171729e-001  1.283926e+000  1.400000e+001
      vertex  8.266366e-017  1.350000e+000  1.400000e+001
    endloop
  endfacet
  facet normal  -0.000000e+000  0.000000e+000  1.000000e+000
    outer loop
      vertex  4.171729e-001  1.283926e+000  1.400000e+001
      vertex -4.171729e-001  1.283926e+000  1.400000e+001
      vertex  7.935101e-001  1.092173e+000  1.400000e+001
    endloop
  endfacet
  facet normal  0.000000e+000  0.000000e+000  1.000000e+000
    outer loop
      vertex  7.935101e-001  1.092173e+000  1.400000e+001
      vertex -4.171729e-001  1.283926e+000  1.400000e+001
      vertex -7.935101e-001  1.092173e+000  1.400000e+001
    endloop
  endfacet
  facet normal  -0.000000e+000  0.000000e+000  1.000000e+000
    outer loop
      vertex  7.935101e-001  1.092173e+000  1.400000e+001
      vertex -7.935101e-001  1.092173e+000  1.400000e+001
      vertex  1.092173e+000  7.935101e-001  1.400000e+001
    endloop
  endfacet
  facet normal  0.000000e+000  0.000000e+000  1.000000e+000
    outer loop
      vertex  1.092173e+000  7.935101e-001  1.400000e+001
      vertex -7.935101e-001  1.092173e+000  1.400000e+001
      vertex -1.092173e+000  7.935101e-001  1.400000e+001
    endloop
  endfacet
  facet normal  -0.000000e+000  0.000000e+000  1.000000e+000
    outer loop
      vertex  1.092173e+000  7.935101e-001  1.400000e+001
      vertex -1.092173e+000  7.935101e-001  1.400000e+001
      vertex  1.283926e+000  4.171729e-001  1.400000e+001
    endloop
  endfacet
  facet normal  0.000000e+000  0.000000e+000  1.000000e+000
    outer loop
      vertex  1.283926e+000  4.171729e-001  1.400000e+001
      vertex -1.092173e+000  7.935101e-001  1.400000e+001
      vertex -1.283926e+000  4.171729e-001  1.400000e+001
    endloop
  endfacet
  facet normal  -0.000000e+000  0.000000e+000  1.000000e+000
    outer loop
      vertex  1.283926e+000  4.171729e-001  1.400000e+001
      vertex -1.283926e+000  4.171729e-001  1.400000e+001
      vertex  1.350000e+000  0.000000e+000  1.400000e+001
    endloop
  endfacet
  facet normal  0.000000e+000  0.000000e+000  1.000000e+000
    outer loop
      vertex  1.350000e+000  0.000000e+000  1.400000e+001
      vertex -1.283926e+000  4.171729e-001  1.400000e+001
      vertex -1.350000e+000  1.653273e-016  1.400000e+001
    endloop
  endfacet
  facet normal  0.000000e+000  0.000000e+000  1.000000e+000
    outer loop
      vertex  1.350000e+000  0.000000e+000  1.400000e+001
      vertex -1.350000e+000  1.653273e-016  1.400000e+001
      vertex  1.283926e+000 -4.171729e-001  1.400000e+001
    endloop
  endfacet
  facet normal  0.000000e+000  0.000000e+000  1.000000e+000
    outer loop
      vertex  1.283926e+000 -4.171729e-001  1.400000e+001
      vertex -1.350000e+000  1.653273e-016  1.400000e+001
      vertex -1.283926e+000 -4.171729e-001  1.400000e+001
    endloop
  endfacet
  facet normal  -0.000000e+000  0.000000e+000  1.000000e+000
    outer loop
      vertex  1.283926e+000 -4.171729e-001  1.400000e+001
      vertex -1.283926e+000 -4.171729e-001  1.400000e+001
      vertex  1.092173e+000 -7.935101e-001  1.400000e+001
    endloop
  endfacet
  facet normal  0.000000e+000  0.000000e+000  1.000000e+000
    outer loop
      vertex  1.092173e+000 -7.935101e-001  1.400000e+001
      vertex -1.283926e+000 -4.171729e-001  1.400000e+001
      vertex -1.092173e+000 -7.935101e-001  1.400000e+001
    endloop
  endfacet
  facet normal  -0.000000e+000  0.000000e+000  1.000000e+000
    outer loop
      vertex  1.092173e+000 -7.935101e-001  1.400000e+001
      vertex -1.092173e+000 -7.935101e-001  1.400000e+001
      vertex  7.935101e-001 -1.092173e+000  1.400000e+001
    endloop
  endfacet
  facet normal  0.000000e+000  0.000000e+000  1.000000e+000
    outer loop
      vertex  7.935101e-001 -1.092173e+000  1.400000e+001
      vertex -1.092173e+000 -7.935101e-001  1.400000e+001
      vertex -7.935101e-001 -1.092173e+000  1.400000e+001
    endloop
  endfacet
  facet normal  -0.000000e+000  0.000000e+000  1.000000e+000
    outer loop
      vertex  7.935101e-001 -1.092173e+000  1.400000e+001
      vertex -7.935101e-001 -1.092173e+000  1.400000e+001
      vertex  4.171729e-001 -1.283926e+000  1.400000e+001
    endloop
  endfacet
  facet normal  0.000000e+000  0.000000e+000  1.000000e+000
    outer loop
      vertex  4.171729e-001 -1.283926e+000  1.400000e+001
      vertex -7.935101e-001 -1.092173e+000  1.400000e+001
      vertex -4.171729e-001 -1.283926e+000  1.400000e+001
    endloop
  endfacet
  facet normal  -0.000000e+000  0.000000e+000  1.000000e+000
    outer loop
      vertex  4.171729e-001 -1.283926e+000  1.400000e+001
      vertex -4.171729e-001 -1.283926e+000  1.400000e+001
      vertex -2.479910e-016 -1.350000e+000  1.400000e+001
    endloop
  endfacet
endsolid CATIA STL
